<mxfile host="app.diagrams.net" modified="2024-02-04T14:50:43.730Z" agent="Mozilla/5.0 (Macintosh; Intel Mac OS X 10_15_7) AppleWebKit/537.36 (KHTML, like Gecko) Chrome/120.0.0.0 Safari/537.36" etag="-LHmOozgqRpLYSVXJwXc" version="22.1.18" type="device">
  <diagram name="Page-1" id="rV7YDGzHChQOm4sBho1L">
    <mxGraphModel dx="2261" dy="790" grid="1" gridSize="10" guides="1" tooltips="1" connect="1" arrows="1" fold="1" page="1" pageScale="1" pageWidth="827" pageHeight="1169" math="0" shadow="0">
      <root>
        <mxCell id="0" />
        <mxCell id="1" parent="0" />
        <mxCell id="T2kzDkr0WhVx5to_5DXp-1" value="" style="rounded=0;whiteSpace=wrap;html=1;fillColor=#f5f5f5;fontColor=#333333;strokeColor=#666666;" vertex="1" parent="1">
          <mxGeometry x="-20" y="60" width="790" height="450" as="geometry" />
        </mxCell>
        <mxCell id="OH0s-E3yEeadJ9qVQvhn-4" value="" style="shape=cylinder3;whiteSpace=wrap;html=1;boundedLbl=1;backgroundOutline=1;size=15;" parent="1" vertex="1">
          <mxGeometry x="83" y="270" width="60" height="90" as="geometry" />
        </mxCell>
        <mxCell id="OH0s-E3yEeadJ9qVQvhn-5" value="" style="image;aspect=fixed;perimeter=ellipsePerimeter;html=1;align=center;shadow=0;dashed=0;spacingTop=3;image=img/lib/active_directory/database.svg;" parent="1" vertex="1">
          <mxGeometry x="85.94999999999999" y="318" width="54.05" height="40" as="geometry" />
        </mxCell>
        <mxCell id="OH0s-E3yEeadJ9qVQvhn-6" value="&lt;font style=&quot;font-size: 10px;&quot;&gt;L&lt;sub&gt;1&lt;/sub&gt;&lt;/font&gt;" style="text;strokeColor=none;align=center;fillColor=none;html=1;verticalAlign=middle;whiteSpace=wrap;rounded=0;" parent="1" vertex="1">
          <mxGeometry x="93" y="335" width="40" height="20" as="geometry" />
        </mxCell>
        <mxCell id="OH0s-E3yEeadJ9qVQvhn-7" value="&lt;font style=&quot;font-size: 10px;&quot;&gt;U&lt;sub&gt;1&lt;/sub&gt;&lt;/font&gt;" style="text;strokeColor=none;align=center;fillColor=none;html=1;verticalAlign=middle;whiteSpace=wrap;rounded=0;" parent="1" vertex="1">
          <mxGeometry x="83.97999999999999" y="295" width="60" height="30" as="geometry" />
        </mxCell>
        <mxCell id="OH0s-E3yEeadJ9qVQvhn-8" value="Local Data" style="text;strokeColor=none;align=center;fillColor=none;html=1;verticalAlign=middle;whiteSpace=wrap;rounded=0;" parent="1" vertex="1">
          <mxGeometry x="85.94999999999999" y="360" width="60" height="30" as="geometry" />
        </mxCell>
        <mxCell id="OH0s-E3yEeadJ9qVQvhn-11" value="" style="sketch=0;outlineConnect=0;fontColor=#232F3E;gradientColor=none;fillColor=#232F3D;strokeColor=none;dashed=0;verticalLabelPosition=bottom;verticalAlign=top;align=center;html=1;fontSize=12;fontStyle=0;aspect=fixed;pointerEvents=1;shape=mxgraph.aws4.user;" parent="1" vertex="1">
          <mxGeometry x="233" y="290" width="60" height="60" as="geometry" />
        </mxCell>
        <mxCell id="OH0s-E3yEeadJ9qVQvhn-14" value="" style="edgeStyle=none;orthogonalLoop=1;jettySize=auto;html=1;rounded=0;" parent="1" edge="1">
          <mxGeometry width="80" relative="1" as="geometry">
            <mxPoint x="153" y="309.5" as="sourcePoint" />
            <mxPoint x="233" y="309.5" as="targetPoint" />
            <Array as="points" />
          </mxGeometry>
        </mxCell>
        <mxCell id="OH0s-E3yEeadJ9qVQvhn-16" value="" style="edgeStyle=none;orthogonalLoop=1;jettySize=auto;html=1;rounded=0;" parent="1" edge="1">
          <mxGeometry width="80" relative="1" as="geometry">
            <mxPoint x="229" y="335.5" as="sourcePoint" />
            <mxPoint x="151.95" y="335" as="targetPoint" />
            <Array as="points" />
          </mxGeometry>
        </mxCell>
        <mxCell id="OH0s-E3yEeadJ9qVQvhn-17" value="Annotate" style="text;strokeColor=none;align=center;fillColor=none;html=1;verticalAlign=middle;whiteSpace=wrap;rounded=0;" parent="1" vertex="1">
          <mxGeometry x="163" y="337" width="60" height="30" as="geometry" />
        </mxCell>
        <mxCell id="OH0s-E3yEeadJ9qVQvhn-18" value="Query" style="text;strokeColor=none;align=center;fillColor=none;html=1;verticalAlign=middle;whiteSpace=wrap;rounded=0;" parent="1" vertex="1">
          <mxGeometry x="163" y="280" width="60" height="30" as="geometry" />
        </mxCell>
        <mxCell id="OH0s-E3yEeadJ9qVQvhn-19" value="Annotator 1" style="text;strokeColor=none;align=center;fillColor=none;html=1;verticalAlign=middle;whiteSpace=wrap;rounded=0;" parent="1" vertex="1">
          <mxGeometry x="233" y="357" width="67" height="30" as="geometry" />
        </mxCell>
        <mxCell id="OH0s-E3yEeadJ9qVQvhn-20" value="" style="edgeStyle=none;orthogonalLoop=1;jettySize=auto;html=1;rounded=0;exitX=0;exitY=0.75;exitDx=0;exitDy=0;entryX=0.855;entryY=0;entryDx=0;entryDy=4.35;entryPerimeter=0;" parent="1" edge="1" target="OH0s-E3yEeadJ9qVQvhn-4" source="T2kzDkr0WhVx5to_5DXp-2">
          <mxGeometry width="80" relative="1" as="geometry">
            <mxPoint x="320" y="140" as="sourcePoint" />
            <mxPoint x="130" y="230" as="targetPoint" />
            <Array as="points" />
          </mxGeometry>
        </mxCell>
        <mxCell id="OH0s-E3yEeadJ9qVQvhn-22" value="" style="edgeStyle=none;orthogonalLoop=1;jettySize=auto;html=1;rounded=0;exitX=0.5;exitY=0;exitDx=0;exitDy=0;exitPerimeter=0;entryX=0;entryY=0.5;entryDx=0;entryDy=0;" parent="1" edge="1" target="T2kzDkr0WhVx5to_5DXp-2" source="OH0s-E3yEeadJ9qVQvhn-4">
          <mxGeometry width="80" relative="1" as="geometry">
            <mxPoint x="140" y="250" as="sourcePoint" />
            <mxPoint x="330" y="160" as="targetPoint" />
            <Array as="points" />
          </mxGeometry>
        </mxCell>
        <mxCell id="OH0s-E3yEeadJ9qVQvhn-27" value="Server" style="text;strokeColor=none;align=center;fillColor=none;html=1;verticalAlign=middle;whiteSpace=wrap;rounded=0;" parent="1" vertex="1">
          <mxGeometry x="340" y="160" width="60" height="30" as="geometry" />
        </mxCell>
        <mxCell id="OH0s-E3yEeadJ9qVQvhn-28" value="Weights" style="text;strokeColor=none;align=center;fillColor=none;html=1;verticalAlign=middle;whiteSpace=wrap;rounded=0;rotation=-25;" parent="1" vertex="1">
          <mxGeometry x="223" y="200" width="60" height="30" as="geometry" />
        </mxCell>
        <mxCell id="OH0s-E3yEeadJ9qVQvhn-29" value="Global Model&lt;br&gt;" style="text;strokeColor=none;align=center;fillColor=none;html=1;verticalAlign=middle;whiteSpace=wrap;rounded=0;rotation=-25;" parent="1" vertex="1">
          <mxGeometry x="190" y="140" width="84.05" height="30" as="geometry" />
        </mxCell>
        <mxCell id="OH0s-E3yEeadJ9qVQvhn-30" value="" style="shape=cylinder3;whiteSpace=wrap;html=1;boundedLbl=1;backgroundOutline=1;size=15;" parent="1" vertex="1">
          <mxGeometry x="500" y="270" width="60" height="90" as="geometry" />
        </mxCell>
        <mxCell id="OH0s-E3yEeadJ9qVQvhn-31" value="" style="image;aspect=fixed;perimeter=ellipsePerimeter;html=1;align=center;shadow=0;dashed=0;spacingTop=3;image=img/lib/active_directory/database.svg;" parent="1" vertex="1">
          <mxGeometry x="502.95" y="318" width="54.05" height="40" as="geometry" />
        </mxCell>
        <mxCell id="OH0s-E3yEeadJ9qVQvhn-32" value="&lt;font style=&quot;font-size: 10px;&quot;&gt;L&lt;sub&gt;k&lt;/sub&gt;&lt;/font&gt;" style="text;strokeColor=none;align=center;fillColor=none;html=1;verticalAlign=middle;whiteSpace=wrap;rounded=0;" parent="1" vertex="1">
          <mxGeometry x="510" y="335" width="40" height="20" as="geometry" />
        </mxCell>
        <mxCell id="OH0s-E3yEeadJ9qVQvhn-33" value="&lt;font style=&quot;font-size: 10px;&quot;&gt;U&lt;sub&gt;k&lt;/sub&gt;&lt;/font&gt;" style="text;strokeColor=none;align=center;fillColor=none;html=1;verticalAlign=middle;whiteSpace=wrap;rounded=0;" parent="1" vertex="1">
          <mxGeometry x="500.98" y="295" width="60" height="30" as="geometry" />
        </mxCell>
        <mxCell id="OH0s-E3yEeadJ9qVQvhn-34" value="Local Data" style="text;strokeColor=none;align=center;fillColor=none;html=1;verticalAlign=middle;whiteSpace=wrap;rounded=0;" parent="1" vertex="1">
          <mxGeometry x="502.95" y="360" width="60" height="30" as="geometry" />
        </mxCell>
        <mxCell id="OH0s-E3yEeadJ9qVQvhn-35" value="" style="sketch=0;outlineConnect=0;fontColor=#232F3E;gradientColor=none;fillColor=#232F3D;strokeColor=none;dashed=0;verticalLabelPosition=bottom;verticalAlign=top;align=center;html=1;fontSize=12;fontStyle=0;aspect=fixed;pointerEvents=1;shape=mxgraph.aws4.user;" parent="1" vertex="1">
          <mxGeometry x="650" y="290" width="60" height="60" as="geometry" />
        </mxCell>
        <mxCell id="OH0s-E3yEeadJ9qVQvhn-36" value="" style="edgeStyle=none;orthogonalLoop=1;jettySize=auto;html=1;rounded=0;" parent="1" edge="1">
          <mxGeometry width="80" relative="1" as="geometry">
            <mxPoint x="570" y="309.5" as="sourcePoint" />
            <mxPoint x="650" y="309.5" as="targetPoint" />
            <Array as="points" />
          </mxGeometry>
        </mxCell>
        <mxCell id="OH0s-E3yEeadJ9qVQvhn-37" value="" style="edgeStyle=none;orthogonalLoop=1;jettySize=auto;html=1;rounded=0;" parent="1" edge="1">
          <mxGeometry width="80" relative="1" as="geometry">
            <mxPoint x="646" y="335.5" as="sourcePoint" />
            <mxPoint x="568.95" y="335" as="targetPoint" />
            <Array as="points" />
          </mxGeometry>
        </mxCell>
        <mxCell id="OH0s-E3yEeadJ9qVQvhn-38" value="Annotate" style="text;strokeColor=none;align=center;fillColor=none;html=1;verticalAlign=middle;whiteSpace=wrap;rounded=0;" parent="1" vertex="1">
          <mxGeometry x="580" y="337" width="60" height="30" as="geometry" />
        </mxCell>
        <mxCell id="OH0s-E3yEeadJ9qVQvhn-39" value="&lt;font style=&quot;font-size: 10px;&quot;&gt;Query using different AL strategies&lt;/font&gt;" style="text;strokeColor=none;align=center;fillColor=none;html=1;verticalAlign=middle;whiteSpace=wrap;rounded=0;" parent="1" vertex="1">
          <mxGeometry x="573" y="280" width="70" height="10" as="geometry" />
        </mxCell>
        <mxCell id="OH0s-E3yEeadJ9qVQvhn-40" value="Annotator K" style="text;strokeColor=none;align=center;fillColor=none;html=1;verticalAlign=middle;whiteSpace=wrap;rounded=0;" parent="1" vertex="1">
          <mxGeometry x="650" y="357" width="70" height="30" as="geometry" />
        </mxCell>
        <mxCell id="OH0s-E3yEeadJ9qVQvhn-42" value="" style="shape=mxgraph.arrows.circular_arrow;html=1;verticalLabelPosition=bottom;verticalAlign=top;strokeWidth=2;strokeColor=#000000;rotation=-180;" parent="1" vertex="1">
          <mxGeometry x="513.97" y="390" width="37.95" height="27" as="geometry" />
        </mxCell>
        <mxCell id="OH0s-E3yEeadJ9qVQvhn-43" value="Train the model with updated data" style="text;strokeColor=none;align=center;fillColor=none;html=1;verticalAlign=middle;whiteSpace=wrap;rounded=0;" parent="1" vertex="1">
          <mxGeometry x="500" y="430" width="80" height="33" as="geometry" />
        </mxCell>
        <mxCell id="OH0s-E3yEeadJ9qVQvhn-53" value="" style="edgeStyle=none;orthogonalLoop=1;jettySize=auto;html=1;rounded=0;entryX=0.302;entryY=-0.023;entryDx=0;entryDy=0;entryPerimeter=0;exitX=0.557;exitY=0.133;exitDx=0;exitDy=0;exitPerimeter=0;" parent="1" edge="1" target="T2kzDkr0WhVx5to_5DXp-8" source="T2kzDkr0WhVx5to_5DXp-1">
          <mxGeometry width="80" relative="1" as="geometry">
            <mxPoint x="450" y="150" as="sourcePoint" />
            <mxPoint x="620" y="250" as="targetPoint" />
            <Array as="points" />
          </mxGeometry>
        </mxCell>
        <mxCell id="OH0s-E3yEeadJ9qVQvhn-54" value="" style="edgeStyle=none;orthogonalLoop=1;jettySize=auto;html=1;rounded=0;exitX=0.25;exitY=0;exitDx=0;exitDy=0;entryX=1.014;entryY=0.614;entryDx=0;entryDy=0;entryPerimeter=0;" parent="1" edge="1" target="T2kzDkr0WhVx5to_5DXp-2" source="T2kzDkr0WhVx5to_5DXp-8">
          <mxGeometry width="80" relative="1" as="geometry">
            <mxPoint x="630" y="230" as="sourcePoint" />
            <mxPoint x="457" y="130" as="targetPoint" />
            <Array as="points" />
          </mxGeometry>
        </mxCell>
        <mxCell id="OH0s-E3yEeadJ9qVQvhn-55" value="Global Model&lt;br&gt;" style="text;strokeColor=none;align=center;fillColor=none;html=1;verticalAlign=middle;whiteSpace=wrap;rounded=0;rotation=30;" parent="1" vertex="1">
          <mxGeometry x="472.95" y="200" width="84.05" height="30" as="geometry" />
        </mxCell>
        <mxCell id="OH0s-E3yEeadJ9qVQvhn-56" value="Weights" style="text;strokeColor=none;align=center;fillColor=none;html=1;verticalAlign=middle;whiteSpace=wrap;rounded=0;rotation=30;" parent="1" vertex="1">
          <mxGeometry x="513.97" y="140" width="60" height="30" as="geometry" />
        </mxCell>
        <mxCell id="T2kzDkr0WhVx5to_5DXp-2" value="" style="shape=image;verticalLabelPosition=bottom;labelBackgroundColor=default;verticalAlign=top;aspect=fixed;imageAspect=0;image=data:image/png,iVBORw0KGgoAAAANSUhEUgAAAgAAAAIACAYAAAD0eNT6AAAABHNCSVQICAgIfAhkiAAAAAlwSFlzAAAN1wAADdcBQiibeAAAABl0RVh0U29mdHdhcmUAd3d3Lmlua3NjYXBlLm9yZ5vuPBoAACAASURBVHic7N13uF1Vtf7x75uE0HtHQVCqdAwQb0CKWMArxu4VFRs2/KFeCyh6Fa4o2FAREQtXwYKI0vQCKohABAHpSFMpXjrSCRBIxu+PuRKScJKcssZae+39fp5nPwFyzhgjunPm2HPONaciAuseSc8Gtq5ezwZWAFasfp39z8sDE9qq0cw6bybwwFyv++f659uAy4DLIuLW1iq0UZMbgN4naSVgN2AbyoC/DbBKq0WZmT3tX1TNAHAp8PuIuLfdkmxR3AD0KEmrAq8GXgfsgj/Jm1l3zATOAU4EToqIu9otx4biBqCHSFoZeANl0N8JGN9uRWZmYzYLOI/SDPw8Iu5puR6ruAHoAdV6/keB9wBLtVyOmVmWx4DvA1+OiH+2XcygcwPQIknrA/sDbwMmtlyOmVlTngSOAw6NiBvbLmZQuQFogaSNgM8Br8fT/GY2uGYBvwA+FxHXtV3MoHED0CBJE4EDgAPxJ34zs9lmAIdQZgRmtF3MoHAD0BBJLwS+B2zadi1mZj3qGmCfiLig7UIGwbi2C+h3kpaVdARwPh78zcwWZlPgfElHSFq27WL6nWcAEkmaBPwKWLvtWszMOuafwGsi4pK2C+lXngFIIul1wLl48DczG421gXMlvaHtQvqVG4AEkg4ETgCWbLsWM7MOWxI4XtJn2y6kH3kJoEaSFqcccvGWtmsxM+szPwfeERGPtV1Iv3ADUBNJKwC/Af6t7VrMzPrUxcDuEfGvtgvpB24AaiBpKeC3wJS2azEz63MXA7tGxCNtF9J13gMwRpIWo5xk5cHfzCzftsDJ1cFqNgZuAMZAkoAfAnu0XIqZ2SB5MfBTST5KfQzcAIzNEcCb2y7CzGwAvRb4TttFdJkbgFGqHvXbt+06zMwG2Lsl/XfbRXSVNwGOgqQdgXNwA2Vm1rYAXhoRv2+7kK5xAzBCkpYHrgCe03Ytc5kBXE2p6x7gAeDB6jWzxbrMrNsmAMsBKwDLA6sBWwKbAYu1WNf8bge28OOBIzOh7QI66CjaH/yfosxAnARcCFztKzTNrCnVDvzNgMnAq4GdaXc8WYty2+prWqyhczwDMAKS3gIc12IJ5wDHAqdExH0t1mFmNoeklYGpwNuBHVosZZ+I+H6L+TvFDcAwSVoPuJwyHda0XwNf8B3ZZtbrJE0BPgm8ooX0jwLbRMQNLeTuHDcAwyTpHGCnhtOeC+wXEVc0nNfMbEwkbQl8E3hRw6kvBKZExKyG83aOd7EPg6R30Ozg/yDwXmBnD/5m1kXVz66dKT/LHmww9eQqpy2CZwAWQdIqwHXAyg2l/C3lxqvbG8pnZpZK0lqUU1Nf0lDKB4GNI+LOhvJ1kmcAFu3LNDf4HwHs4cHfzPpJ9TNtd+DbDaVcHji8oVyd5RmAhZC0E2XnfbanKGv9RzWQy8ysNZL2A74GNHGO/8sj4swG8nSSG4AFqJ5zvQLYODnVTOCNEfHL5DxmZj1B0n8APyZ/FvofwGYR8Vhynk7yEsCC7U/+4A/wXg/+ZjZIIuJnwAcaSPVc4NMN5OkkzwAMQdIGwJXAEsmpPhERX07OYWbWkyR9AjgsOc2TwFYR8dfkPJ3jBmAIkn4H7Jac5kcR8fbkHGZmPU3SD4G9k9OcD7woPODNww3AfCTtRVmbyvR3YOuIeDg5j5lZT5O0LHAZ8LzkVO+OiB8k5+gUNwBzkbQi5Zn/1RLTPAXsEBF/TsxhZtYZkranfErPvFDoPsrZAPck5ugUbwKc12HkDv4Ah3jwNzN7WvUz8ZDkNCsBX03O0SmeAahUF1icBygxzXXAlr6618xsXtWj11cCGyWnenFEnJ2coxM8AwBIWgz4DrmDP8D7PfibmT1T9bPxfQ2kOkrS4g3k6XluAIqPApsl5/hhRJyTnMPMrLOqn5E/Sk6zIeW64oE38EsAktYDrgGWTEzzL8rmk3sTc5iZdV5DF7A9AWwRETck5uh5ngGAI8kd/AE+7sHfzGzRqp+VH09Oszhl2XegDfQMgKQ3AD9PTvPHiNg5OYeZWd+QJMpFbC9KTrV3RBybnKNnDWwDIGl54FpgzcQ0Myi7/q9LzGFm1nckbQJcDkxMTHMPZXn2vsQcPWuQlwAOIXfwB/iSB38zs5GLiGuBLyWnWbWBHD1rIGcAJG0HXEBuA/Q3YPOIeDwxh5lZ35K0BHAVsH5imgB2iojzEnP0pIGbAZA0Hjia/D/7+z34m5mNXvUzNPvaYAHfqc6DGSgD1wAAHwK2Ss7x04j4fXIOM7O+FxG/A36anOb55D950HMGaglA0jrAX4GlE9PcT9lUcndiDjOzgSFpdcrZACskpnkc2Cwi/p6Yo6cM2gzAEeQO/gAHePA3M6tPRNwFHJCcZgng28k5esrAzABImgqclJzmT5Srfgfjf1Qzs4ZUZwNMA16YnOo/IuL45Bw9YSAaAEnLUJ75f3ZimqeArSPi6sQcZmYDS9LmwKXAhMQ0dwKbRMQDiTl6wqAsAfw3uYM/wFc9+JuZ5YmIq4CvJadZA/hico6e0PczAJK2AS4CxiemuYmyeWR6Yg4zs4EnaSnKBW7rJqYJ4N8i4sLEHK3r6xkASeMoz/xnDv4A+3rwNzPLV/2s/WByGgFHS8pcamhdXzcAwL7ApOQcv4iI05NzmJlZJSJ+A5yYnGYL4CPJOVrVt0sAktaibPxbLjHNQ5Rn/u9IzGFmZvNp6Gf8dOD5EXFLYo7W9PMMwDfJfWMAfMqDv5lZ8yLiduDTyWmWAo5MztGavpwBkPQK4NfJaS4CXhgRs5LzmJnZEKp9Xn8mf6n3dRHxy+Qcjeu7BqDaIfpX4DmJaWYCkyLi8sQcZma2CA096XUb5WyAhxNzNK4flwA+R+7gD/AND/5mZu2LiEspx7xnehZwSHKOxvXVDEBDp0T9k7Ip5JHEHGZmNkwNnfY6C9g+Ii5JzNGovpkBqM6JPprcwR/ggx78zcx6R/Uz+f8lpxlHORsg+1yZxvRNAwC8h/xLIk6OiFOTc5iZ2QhFxMlA9s/nbcg/hKgxfbEE0NBd0Y9QNoH8X2IOMzMbJUnrUDaBZ1773jdjQb/MABxO7uAP8Jl++D/czKxfRcStwH8lp1mGcs5M53V+BkDSS4Ezk9NcBmwbETOT85iZ2RhUa/SXAFslp9ozIk5LzpGq0w2ApCWAq4HnJabpu52fZmb9TNJ2wAXkznLfSnki7NHEHKm6vgTwaXIHf4AjPfibmXVHRFwEfCc5zTrAQck5UnV2BkDSJsDlwMTENLdTNns8lJjDzMxqJml5ytkAayameYpyKuwViTnSdHIGYK5n/jMHf4APefA3M+ueiHgQ+HBymgmUswE6OZZ2smjgHcCOyTl+ExHZ902bmVmSiDgBOCM5zfbA+5JzpOjcEoCkVYDrgZUS00wHNo2ImxNzmJlZMknrAdcASyameZCyXNyp6+G7OAPwVXIHf4CDPPibmXVfRNwEHJycZnng68k5atepGQBJuwBnJ6e5CtgmIp5KzmNmZg2QtBjlPJdNk1PtHhHZSw616UwDIGlx4Apgo8Q0AUyJiAsSc5iZWcMkTQHOA5SY5ibK8vFjiTlq06UlgAPIHfwBvuvB38ys/0TENOD7yWnWI/8o4tp0YgZA0obAlcDiiWnuAjaOiAcSc5iZWUskrUi5OG61xDRPAltHxDWJOWrRlRmAo8gd/AE+4sHfzKx/RcT9wEeT0yxGORsgc6mhFj3fAEh6K7BrcprfRsTPknOYmVnLIuLHwFnJaaYA707OMWY9vQQgaSXKdM2qiWkeBzaLiL8n5jAzsx4haQPKE1+ZM8v3U5aV707MMSa9PgNwGLmDP8DnPfibmQ2OiLgR+EJymhUp59b0rJ6dAZC0A3AuuY9s/BXYKiKeTMxhZmY9RtJEyuby7KfLdouI7CWHUenJGYDq0IbvkDv4B/A+D/5mZoMnImbQzBn+R1Xn2PScnmwAgI+Rf2LT/0TEeck5zMysR0XEOcCPktNsAHwqOceo9NwSgKTnAleTe3HDvcBGEXFfYg4zM+tx1QVz1wErJ6aZAWwREdcn5hixXpwB+Da5gz/ARz34m5lZRNwLfCI5zUTKsnZP6akZAElvBI5PTvOHiMg+V8DMzDqiOrTnHOBFyaneHhHZSw7D1jMNgKTlKdMwaySmeQLYstemYczMrF2SNgEup3xaz3Iv5WyAfyXmGLZeWgL4IrmDP8ChHvzNzGx+EXEt8OXkNKs0kGPYemIGQNL2wJ/IbUhuoGzCeCIxh5mZdZSkJSib0J+XmCaAnSPi3MQcw9L6DICkCcDRDdTyfg/+Zma2IBHxOPCB5DQCvlMdRNSq1hsA4MPAlsk5jouIs5NzmJlZx0XEb4Hsy+E2If/Jg0VqdQlA0jqU43iXTkxzH2XTxT2JOczMrE9IWp2yKX2FxDSPA5tHxN8ScyxU2zMA3yJ38Af4hAd/MzMbroi4CzggOc0SlHNvWtPaDICk1wC/TE5zPvCi6IWdjmZm1hnV2QDTgBcmp9orIn6anGNIrTQAkpYFrgWelZjmScpNf39NzGFmZn1K0ubApcCExDR3UZapH0jMMaS2lgD+m9zBH+DLHvzNzGy0IuIq4PDkNKsDhybnGFLjMwCSXgD8GRifmOYfwGYR8VhiDjMz63OSlqJsVn9OYpoApkTEBYk5nqHRGQBJ4ynP/GcO/gAf8OBvZmZjFRHTgX2T0wg4ujoXpzFNLwHsC7wgOcfxEXFmcg4zMxsQEfEb8jetbw78Z3KOeTS2BCDpWZSNf8smpnmQspnizsQcZmY2YCStRTkbIHMMmw5sGhE3J+aYo8kZgG+S+z8cwAEe/M3MrG4RcTtwYHKapYAjk3PM0cgMgKR/B05LTnMhZRPFrOQ8ZmY2gCSNo2xin5Sc6vURcWJyjvwGQNLSwDXk7qB8CnhBRFyZmMPMzAacpG2Ai8jdzH47sElEPJSYo5ElgM+RO/gDHO7B38zMskXEpcARyWnWAg5JzpE7AyBpS+ASck9RugXYFJgIrAmsAaxC+/ccmJlZf5gF3APcRvl0DmVT+7OTc06OiIuzEqQ1ANVayZ+A7VMSPO1RylTMEsl5zMzMAB6iPLufvbH9MmDbiJiZETzzU/J7yR/8odwm6MHfzMyashz5gz/A1sB+WcFTZgAkrUF5XnL52oObmZkNjkeA50fEP+sOnDUD8HU8+JuZmY3VMiRtOqx9BkDSy4Azag1qZmY22KZGxCl1Bqy1AZC0JHA18NzagpqZmdk/KUsBj9QVsO4lgM/gwd/MzKxuawMH1xmwthkASc8HLgcWqyWgmZmZzW0m5bHAy+oIVssMgCQBR+PB38zMLMt44OjqnJ0xq2sJ4J3ADjXFMjMzs6FtC7y/jkBjXgKQtCrlmf+V6ijIzMzMFuohYOOIuGMsQeqYAfgqHvzNzMyashzwjbEGGdMMgKRdgbPGWoSZmZmN2Csi4n9H+82jbgAkLQ5cCWw42uRmZmY2ajcDm0bE9NF881iWAD6JB38zM7O2rAv812i/eVQzAJI2Aq4AFh9tYjMzMxuzp4CtI+LqkX7jaGcAjsKDv5mZWdsmUM4G0Ei/ccQNgKS3AbuM9PvMzMwsxb8B+4z0m0a0BCBpJeB6YJWRJjIzM7M091POBrh7uN8w0hmAL+PB38zMrNesCBw+km8Y9gyApB2BPwIjXmcwMzOzRrwkIn4/nC8cVgMgaTHKTX/PH2NhdQngIkpNtw/xuifquubQzMwGWrXBblVgrSFeWwHb0Tsfjv8GbB4Rjy/qC4fbABwIfL6GwsZiBnA2cDJw6ljPQDYzM6uDpLWAPYGplE3yE9utiM9HxGcW9UWLbAAkPQ+4GliipsJG6izgu8DpEfFwSzWYmZktkqTlgD2A9wE7tVTGDGDLiLhuYV80nAbgx8BeNRY2XFcA+0fEmS3kNjMzGxNJewCHApu3kP4XEfGGhX3BQhuA6tP/tcBiNRe2MLcAnwF+EhGzGsxrZmZWK0njgLcCBwPrNJj6Scpjgf9Y0Bcs6jHAz9Pc4D8T+DSwUUQc58HfzMy6LiJmRcSPKHfnfJoy1jVhMeCQhX3BAmcAJG0DXEIzOxsfAN7k6X4zM+tnkl4GHA+s0EC6ACZFxKVD/ebCZgC+SDOD//XA9h78zcys31Vj3faUsS+bgMMW9JtDNgCSXgy8NKuiuZwJTI6IGxrIZWZm1rpqzJtMGQOz7SbpJUP9xjOWAKoDDy4CJiUXdSzwzohoaj3EzMysZ0gaDxwDvC051aWUpYB5BvyhZgD2IH/wnwbs48HfzMwGVTUG7kMZEzNtQzmkaB5DNQDvSi7kVuA1ETEjOY+ZmVlPq8bC11DGxkzPGNvnWQKQtArlLP2sR/+mA1Mi4vKk+GZmZp0jaSvKTMBSSSlmAs+OiDtn/4f5ZwDeQt7gH8DeHvzNzMzmVY2Ne1PGygzjKWP8HPM3AO9ISgxwTEScmBjfzMyss6ox8pjEFPOM8XOWAKqDf/6SlHQ6sEFE3J4U38zMrPOqmwVvJG8pYLuIuBjmnQHI/PR/uAd/MzOzhavGysMTU7x99j/MPQNwG7BWQrJ7gOf5Kl8zM7NFk7Qs8Hdg1YTwd0XEGlDNAEhah5zBH+BgD/5mZmbDU42ZByeFX13SevD0EsC/JSW6FTg6KbaZmVm/Opq8swFeCE83AC9MSnJiRDyZFNvMzKwvVWPnL5PCTwaYUP1L1gzAyUlx00haDlhziNdqlGuLb5//FREPtlOtWR5JSwNbUY4R3QpYut2KzIblUeByyvn3l0fEoy3XMxanAB9JiDsZylWBSwIPUv8BQPcAa0TErJrj1k7SFpRzkqcCW48ixM3AqdXrXM96WJdJ2owy/TiZhV8ZbtbrZgEXAu+JiGvaLmakqsuC7gZWqjn0k8ByAnYEzq05OJSDf7LvFRg1STsCr6YM+uvVGPpB4HRK53Zax7tPGyCSxgEfo2w+Wrzlcszq9ATwX8BXuvChdG6SjgXemhB6h3GU6b0MPTn9L2mypPMoTc9HqHfwB1geeBPwM+Bvkt5TdXFmPUvSUpS/E4fhwd/6z+KU9/a51Xu9S05JirvNOMradt1mAL9LiDtqkjaQ9AvgAmCHhtKuQZlKvUrSKxvKaTYahwJT2i7CLNkUynu9S86kLGXUbfVxwMoJge+IiMcT4o6YpJUlfQu4BnhdS2VsApwq6ZzqyGWzniFpF+CDbddh1pAPVu/5ToiIRyj7AOq2cloDkBBzxCRtDlwC7EveLYcjsRNwgaR3t12IGczZ6X8MZUOw2SAQcEz13u+KjKP0Vx5H/bsLoQcaAEl7An8C1m25lPlNBL4n6RveG2A9YCd67++IWbZ1Ke/9rkhrADJmAO5MiDlskg4ATgKWabOORdgPOEPSim0XYgNtUtsFmLWkS+/9TjUArcwASJog6cfAF+nG88u7ARdJWr/tQmxgdemHoFmduvTedwMwDN8E9mop92itD5zumQBrSZd+CJrVqUvv/bQGYMmEwI8kxFwoSR8E3t903pqsD5zgPQFmZjaEjBt1l+zCNPkiSXoJ8PW26xij3YCvtV2EDZxL2i7ArCUD/97vfAMgaSPgBKAfPj3v50cErWED/0PQBtbAv/c73QBIWpxyAc8KbddSoyN9WJA1aOB/CNrAGvj3fqcbAMoBPxu2XUTNJuKlAGvOHym3WZoNkpsp7/2B1tkGQNLywIFt15FkJ98dYE2obqt8JxBt12LWkADe6ZtaO9wAAAeQc4phrzjMTwVYEyLiD8C32q7DrCHfqt7zA6+TDYCkZwEfaruOZJsA72q7CBsYBwDT2i7CLNk0ynvd6GgDAHyOnPMLes1BHbuwwjoqIqYDLwL2B55ouRyzus0APgXsVL3XjQ42ANWA2LXT/kZrDcB7AawRETErIr5EOSHtT+TcQW7WpFnAn4FtI+KLETGz7YJ6yYS2CxiFl9H8p//bgCuBtSlT802uzb8KOL7BfDbgIuJqYErVbG8FbFP96tko64JHgSuAS4HLI6Lxk2m7oosNwNQGcswEvg38Drg4IubcbihpKWBrYDvgY8BaybXsLmmxiHgyOY/ZPKpd0tPw3gCzvtSpJQBJE4BXJKe5BpgcEftFxGlzD/5Q1kojYlpEHA5sChybXM/ylLVZMzOz2nSqAaAMhJmP/n0JeEFEDOuEqIh4ICL2BvYE7k2sa8/E2GZmNoC61gC8KjH2TyJi/4gY8Q7oiDiNcphKFjcAZmZWq641AFsmxb0T2G8sAaomIGs5YN3q5EMzM7NadK0ByNpw996IuK+GOB8Cbq8hzlCyNxuamdkAcQMAF0XEqXUEiogHgK/UEWsIbgDMzKw2nWkAJC1HznPIF/V4vNncAJiZWW060wCQNwDWfSf0ZZRzBOrmBsDMzGrjBqDmBqA6Z/raOmNW3ACYmVltutQALJcU958diblCQkwzMxtQXWoA7kqKu0VHYt6dENPMzAZUlxqArMfrJtUZTNIawLPqjFm5IyGmmZkNqC41AHcAkRB32x6PN5sbADMzq01nGoCImAH8KyH0jpIWrzHeS2qMNTc3AGZmVpvONACVjGWAtYGD6ggkaRLwgTpiDcENgJmZ1aZrDcBtSXE/Jmn7sQSoZhF+CIyvpaJncgNgZma16VoDcE5S3PHADyUtOYYYBwOb1lTP/C6LiIeSYpuZ2QDqWgNwcmLsjYFLRzoTIGklST8GPpFTFpD75zYzswHUqQYgIm4g55S92TYGpkk6dDgbAyXtCVwD7JVYE7gBMDOzmk1ou4BROBnYJDH+eGB/4M2SzgMuphwXfCVlw+Ck6rVd9cp2U0Rc2UAeMzMbIF1tAD7ZQJ61gTdXrzb50781TtLawI6Ucy0mAVuTcxunWd0epVzKdgnlA9x5EZFxPHvndbEBuBj4P+DZbRfSkJPaLsAGh6TxwMcoj8bWeT6GWVOWBnaoXgBPSPos8JWIyLiptbM6tQcAICICOKztOhpyfkSc13YRNhgkbQxMAw7Fg7/1j8Up7+lp1XvcKp1rACpHA39vu4gGfLztAmwwVD8YLwXGdB6GWQ/bnvKkl5uASicbgIh4Ejiw7TqS/TIiLmy7COt/1bT/D4GxnINh1gVLUs58yTqwrVM62QBUTgD+0nYRSZ6kmY2OZlDW/P3J3wbF9pT3/MDrbANQ7QXYv+06knw3Im5suwjrf9Vu/1ruwjDrkIOq9/5A62wDABARZwHHtV1HzW4GPtt2ETYwdsQb/mzwLE557w+0TjcAlX2AP7ddRE0eAfaMiIxrj82Gsm3bBZi1ZODf+51vACLiCWAq5WyALpsF7BURV7VdiA2USW0XYNaSgX/vZzUASoo7pIi4E3gVML3JvDU7MCJObbsIGzhbtF2AWUu69N5PGVPHAQ8nxF05IeZCRcSlwN5ANJ27Bj+JiEPbLsIGko9ItUHVpfd+xpj68DjggYTAaybEXKSIOBF4I92aCfg28Pa2i7CBdUnbBZi1pEvv/Ywx9YG+agAAIuIXlN2dvb4n4CngAxGxb0Q81XYxNrC69EPQrE5deu+7ARiuajlgW3r36YD7gJdFxFFtF2ID76K2CzBrSZfe+24ARqLaGLgzvXdOwLXA9hFxdtuFmEXERYA3n9qgObV673eFG4CRiojHI+JtwG60f2zwvcCHga0i4m8t12I2t/dSZqXMBsF9lPd8l6Q1ABk7IVeV1BNNAMw5MXBb4E00f4vgdOALwPMi4hsRMaPh/GYLVc2W7dd2HWYN2a96z3dCNZaumhD6n+OAKxICC9gzIe6oRfFzYBPg/5G/SfAx4PvABhFxYEQ8lJzPbNQi4ieUuzWeaLsWsyQzgAOq93qX7EnOOQBXCNgQuD4h+BkRsXtC3FpIEmVWYGr12qSGsP8Cfg2cApwZEV16HNEMSZtSrgYe+FPSrK9cCuwdEVe3XchISTodeHlC6I1EOQzoIWDpmoPPAFaJiIyDhmonaUNKI7Az8CxgLcrhCwvqvB4Bbq9el1MG/fMiYmZ6sWaJqrvSPwC8hNIkr9FuRWajciflUb+zgG918XFrSctS9o9NrDn0o8ByiggkXQBMrjkBwBsj4oSEuI2QNJGy+WItYHXgQapBvyuNjdlYSXoWsDWwTNu1mA3DI8BlEXFb24WMlaQ3AD9PCH1hRLxwQvUvV5DTAEwFOtsAVBv2bqleZgOp+kHa+R+mZh00NSnuFfD0ZUBZB+bsKcnTh2ZmZiNQjZ1Zm+n/DE83AL+hXEdbt6WBgxLimpmZ9bODqH9vHpSx/jcAiiiX50k6H5iSkGwmsHlEXJsQ28zMrK9I2gS4ChifEH5aROwAT88AQNnFnmE8cFhSbDMzs35zGDmDP8w11s89A7ABcENSQoCdI+KPifHNzMw6TdJOwDmJKTaMiBthrgagSvxX6jkQZyiXAi/0UbhmZmbPVD16fgGwTVKKayPi+bP/Zdx8v/mzpKRQ/kBHJsY3MzPrsiPJG/xhvjF+/hmAVYBbgSUTC/hQRHwzMb6ZmVmnSNoP+EZiiseAdSLi3tn/YZ4ZgOo3jk0sAOBrknZLzmFmZtYJ1Zj4teQ0x849+MN8MwBVIRsB15Jz+9Bs9wPbRcTfEnOYmZn1NEnrAxcBKyamCWCTiJjn4r/59wBQfcFpiYVA+YOeXv3BzczMBk41Bp5O7uAPcNr8gz8M0QBUvppcDMD6wEVeDjAzs0FTjX0XUcbCbEOO6UM2ABFxLvC/qeUUKwJnVJsfzMzM+l415p1B/id/gP+txvRn1jH/HoA5v1GmJq4GFk8sbG7fB/b1OQFmZtaPquf8jwTe3VDKJ4DNFrTfbkFLAFTf8JWsqobwbuCC6hQkMzOzvlGNbRfQ3OAP8JWFbbZf4AwAgKSlKE8ErJNQ2MKcBuzvC4TMzKzLqot9DgNe2XDqWyk7/6cv6AsWOAMAUH3jf9Zd1TC8ErhK0tHVnchmZmadIWkNSUdTbvVrevAH+OjCBn9YPijq9QAAIABJREFUxAzAnC+STgReW1dVI/QocCpwMnB6RDzcUh1mZmYLJGlZYHdgKrAnsHRLpZwYEa9f1BcNtwFYDvgLzTyusDAzgLMpzcCpEXFHy/WYmdkAk7QmZbCfCuwKTGy3Im4AJg3nw/KwGgAASVtSNjBk3hMwEgHcA9wxxOtf1e+bmZmNlYCVgTWHeK1K7sm5IzEdmBwRVw3ni4fdAABIehflcT0zMzPrLXtHxLDv81noJsD5RcQPgB+OtCIzMzNL9b2RDP4wwhkAAElLAL8GXjyibzQzM7MMZwCvGulBeiNuAAAkLQ2cCUwZ8TebmZlZXc4B9oiIx0b6jaNqAGDOkwFnAZNGFcDMzMzG4gLgpRHxyGi+edQNAICklSjdx+ajDmJmZmYjdRmwa0Q8MNoAI9oEOL+IuA94CXD5WOKYmZnZsF1M+eQ/6sEfxtgAAETEXcAOwEljjWVmZmYLdQKwU0TcO9ZAY24AACLiUcpRwV+oI56ZmZk9w8HAm0az4W8oY9oDMGRAaS/KYUFL1BrYzMxsMD0OvDMiflZn0FpmAObzU+DEhLhmZmaD6ETg+LqD1toASFqSUuRb6oxrZmY2wN4CHF+NsbWpbQlA0lrAKfhcADMzswyXUE78u72OYLXMAEiaRHkswYO/mZlZjknAxdWYO2ZjbgAk7QacC6w19nLMzMxsIdYCzq3G3jEZ60mAO1IuIVhqrIWYmZnZsE0HXh4R5402wFjuAtgW+D2w3GiTm5mZ2ag9BOwWEReP5ptHexvgFsAfgJVGk9TMzMxqcR+wS0RcOdJvHHEDIGkD4HxgtZEmMzMzs9rdDewQETeO5JtG1ABIWgr4M7DZyGozMzOzRFcD20fE9OF+w0ifAvgOHvzNzMx6zWaUMXrYhj0DIOk9wNGjKCpDABdRriG+fYjXPVH3JQdmZjaQJAlYlfII3vyvrYDtALVW4LzeGxHfHc4XDqsBkPQCYBqw+BgLG4sZwNnAycCpEXFHi7WYmZkBc07C3ROYCuwCTGyxnCeAKRHxl0V94SIbAElLA1cB69VT24idBXwXOD0iHm6pBjMzs0WStBywB/A+YKeWyrgJ2DwiHl3YFw1nD8BnaGfwv4JyyMFuEXGCB38zM+t1EfFQRBwfETsDr6B8gG7aepSxe6EWOgMgaUNK8U1OZ9xCKfwnETGrwbxmZma1kjQOeCtwMLBOg6lnUGYBbljQFyxqBuAImhv8ZwKfBjaKiOM8+JuZWddFxKyI+BGwIWWMm9lQ6omUMXyBFjgDIOnVwK8SihrKA8CbIuLMhvKZmZk1TtLLgOOBFRpK+ZqIOGnIWoZqACQtAVwHPCe5MIDrgT0XNk1hZmbWL6rl9VOBjRpIdwuwcUQ8Pv9vLGgJ4G00M/ifCUz24G9mZoOiGvMmU8bAbM+hjOnP8IwZgOrAg78CGycXdSzwzohoaj3EzMysZ0gaDxzDAgboGl0PbDL/AXlDzQC8gvzBfxqwjwd/MzMbVNUYuA9lTMy0EWVsn8dQDcBHkwu5lbIpYUZyHjMzs55WjYWvoYyNmZ4xts+zBFAd+XtJYgHTKUcUXp6Yw8zMrFMkbUWZCVgqMc2kuY8Inn8G4IOJiQPY24O/mZnZvKqxcW/KWJllnjF+zgxAtRnhbmClpMQ/iIh3J8U2MzPrPEnfB96VFP4+YLXZ++/mbgB2Bv6QlHQ6sEFE3J4U38zMrPOqmwVvJG8pYJeIOAfmXQKYmpQM4HAP/mZmZgtXjZWHJ6aYM9bPPQNwE7BuQrJ7gOf5Nj8zM7NFk7Qs8Hdg1YTwN0fEelDNAEjakpzBH+BgD/5mZmbDU42ZByeFX7ca8+csAbw8KdGtwNFJsc3MzPrV0eSdDfByeLoB2DopyYkR8WRSbDMzs75UjZ2/TAq/NcCE6l+2SkpyclLcNJKWA9Yc4rUa8BBwxxCve+Y/Y9ms6yQtTfnZsE3169LtVmQ2LI8CVwCXApdHxCMt1zMWpwAfSYi7FYAojxo8zIJvBhyte4A1ImJWzXFrJ2kLys7IqYxuNuQOytWOJwNn+5hj6zJJm1GmHydT/88FsybNAi4G3hMRV7ZdzEglns8zC1hWwPbAhTUHBzgmIrIOMxgzSTsCr6YM+uvVGPph4HRKM3BqRDxaY2yzNJLGAR+jbD5avOVyzOo0A/gc8KWuXUIn6VjgrQmhJ48DtkwIDD06/S9psqTzgHMpUyt1Dv4AywJvAH4K/E3Se6ouzqxnSVqK8nfiMDz4W/+ZCHwB+GP1Xu+SU5LibjkO2Dwh8AzgdwlxR03SBpJ+AVwA7NBQ2jUoU6lXSXplQznNRuNQYErbRZglm0J5r3fJmZQp+7ptPg5YJSHwHRHxeELcEZO0sqRvAdcAr2upjE2AUyWdI2mblmowG5KkXci9CMysl3ywes93QrWJ8e6E0KuMA1ZICHxHQswRk7Q55XrjfYHFWi4HYCfgAkm+FMl6QrXT/xjKhmCzQSDgmOq93xUZR+mv0LcNgKQ9gT+Rd8LhaE0EvifpG94bYD1gJ3rv74hZtnUp7/2u6FQDcGdCzGGTdABwErBMm3Uswn7AGZJWbLsQG2iT2i7ArCVdeu93qgFoZQZA0gRJPwa+SDeeX94NuEjS+m0XYgOrSz8EzerUpfe+G4Bh+CawV0u5R2t94HTPBFhLuvRD0KxOXXrvpzUASyQEbvzoRUkfBN7fdN6arA+c4D0BZmY2hIwbdZfowjT5Ikl6CfD1tusYo92Ar7VdhA2cS9ouwKwlA//e73wDIGkj4ASgHz497+dHBK1hA/9D0AbWwL/3O90ASFqccglPxj6Gthzpw4KsQQP/Q9AG1sC/9zvdAFAO+Nmw7SJqNhEvBVhz/gjc3HYRZg27mfLeH2idbQAkLQ8c2HYdSXby3QHWhOq2yncC0XYtZg0J4J2+qbXDDQBwAPXfkdxLDvNTAdaEiPgD8K226zBryLeq9/zA62QDIOlZwIfariPZJsC72i7CBsYBwLS2izBLNo3yXjc62gAAnwOWbLuIBhzUsQsrrKMiYjrwImB/4ImWyzGr2wzgU8BO1Xvd6GADUA2IXTvtb7TWAPZsuwgbDBExKyK+RDkh7U/k3EFu1qRZwJ+BbSPiixExs+2CesmEtgsYhZfR/Kf/24ArgbUpU/NNrs1PBX7WYD4bcBFxNTClara3ArapfvVslHXBo8AVwKXA5RHR+Mm0XdHFBmBqAzlmAt8GfgdcHBFzbjeUtBSwNbAd8DFgreRadpc0MSJmJOcxm0e1S3oa3htg1pc6tQQgaQLwiuQ01wCTI2K/iDht7sEfylppREyLiMOBTYFjk+tZFtg1OYeZmQ2YTjUAlE1KmY/+fQl4QUQM64SoiHggIvamrNPfm1hXE7MeZmY2QLrWALwqMfZPImL/iBjxDuiIOI1ymEqWPSUpMb6ZmQ2YrjUAWybFvRPYbywBqiYgazlgTWDVpNhmZjaAutYAZG24e29E3FdDnA8Bt9cQZyhrJsU1M7MB5AYALoqIU+sIFBEPAF+pI9YQ3ACYmVltOtMASFqOnOeQL+rxeLO5ATAzs9p0pgEgb/q/7juhL6OcI1A3NwBmZlYbNwA1NwDVOdPX1hmz4gbAzMxq06UGYLmkuP/sSMysP7+ZmQ2gLjUAdyXF3aIjMe9OiGlmZgOqSw1A1uN1k+oMJmkN4Fl1xqzckRDTzMwGVJcagDuASIi7bY/Hm80NgJmZ1aYzDUB1G96/EkLvKGnxGuO9pMZYc3MDYGZmtelMA1DJWAZYGziojkCSJgEfqCPWENwAmJlZbbrWANyWFPdjkrYfS4BqFuGHwPhaKnomNwBmZlabrjUA5yTFHQ/8UNKSY4hxMLBpTfXM77KIeCgptpmZDaCuNQAnJ8beGPiLpBFt4pO0kqQfA5/IKQvI/XObmdkA6lQDEBE3kHPK3mybABdIOkTSxEV9saQ9gWuAvRJrAjcAZmZWswltFzAKJ1MG6izjgU8Be0k6n3JU8CXAlZQNg5Oq13bVK9tNEXFlA3nMzGyAdLUB+GQDeZ5TvbI/3S+KP/2bdYCk1YENgPWrX1cGlgGWrX4d6jULeGC+1/0L+fcbIuKWxv5Q1te62ABcDPwf8Oy2C2nISW0XYGaFpPHAlpTjvmcP9LMH/WVHGXaN6jXcGu6n3Do69+v6iMi4hdT6WOcagIgISYcBR7RdSwPOj4jz2i7CbFBVe4G2BV5Uvf6N9i/mWhHYtXrNNl3SlczbFFwVEU+0UJ91ROcagMrRwIeB57VdSLKPt12A2SCpBvwXzfXaHlii1aKGZylgcvWabbqkM4BfAr/2o8Q2v042ABHxpKQDgePbriXRLyPiwraLMOt31bT+rsCbgNcAK7RbUW2Wovx5XgPMkPR7SjNwSkRkHKtuHdOpxwDncwLwl7aLSPIkzWx0NBtIKnaUdCTliPHfAu+kfwb/+U0E9gB+ANwl6SxJH5C0Zst1WYs62wBERAD7t11Hku9GxI1tF2HWbyRtJukrwK3AuZS7O1Zrt6rGzZ7xOBK4TdI0SftJGu0mRuuozjYAABFxFnBc23XU7Gbgs20XYdZPJL1U0pnAVcBHGZyniBZFlI2N3wBurQ5BW73lmqwhnW4AKvsAF7RdRE0eAfb0+pzZ2EmaKOnt1e74M4GXtl1Tj1uBcgjazZK+I2n9tguyXJ1vAKrHXF5NmdLrslnAXhFxVduFmHVZdT/Hpyizaf8DbN5uRZ2zBPBe4HpJJ0h6QdsFWY6sBkBJcYcUEXcBe1I+QXfVgRFxattFmHWVpOUlfYnyYeAQwBvcxmYc8HrgEkm/l/SStgsaYClj6jjg4YS4KyfEXKiIuAJ4C+WTdNf8JCIObbsIsy6SNF7S+4AbKWdnLN1ySf3oxcBvJV0q6WVtFzOAhn1S5Ag8Mo5yvnTdWum8I+IUyjOvXZoJ+Dbw9raLMOuiajC6AjgKWLXlcgbB1sAZko6XlDEo2dCekxDzwb5qAGBOE7ADvb8n4CngAxGxb0Q81XYxZl0iaRNJ/wucAWzadj0D6I3AddVZAp3fS9YBGQ3AQ33XAMCc5YDt6N2nA+4DXhYRR7VdiFmXSFpW0hGU67l3b7ueAbc85SyBP0nasu1i+pxnAEai2hi4C713TsC1wPYRcXbbhZh1iaQXUQb+D9LRY8z71PbAXyR9RZL3X+RYJyFm/zYAUB4RjIi3AbvR/rHB91IuMNoqIv7Wci1mnSFpCUlfBf4ArNtyOTa08ZQDlv4qac+2i+knVVOVsbH+/nHAPxMCrypprYS4o1KdGLgt5bKPvzecfjrwBeB5EfGNiJjRcH6zzqqeQf8L8J/0wbklA2Ad4BRJJ0katCOWszw3Ke714yg7aOsmynP5PSOKnwObAP8P+L/klI8B3wc2iIgDfRWn2fBJmiDpv4ALgee3XY+N2FTK+QE+RGjsssbSqwVsCFyfEPzMiHh5QtxaSBJlVmBq9dqkhrD/An4NnEL580+vIabZQJH0HOAXlL+f1m2PA++JiF7bi9UZkq4DNkoIvbEo02oPUf/hGTOAVbvyyVfShpRGYGfgWcBalHWXBZ3A9AjlGtHbgcspg/55ETEzvVizPiVpCnASfqa/3xwOfNw/H0dG0nbAnxNCPw4so4hA0gXA5IQk/xERxyfEbYSkiZQNjWsBqwMPUg36EZFxgqLZwJL0duBoyt31XfcUcBPwD8rPjUcop67O/nX2P48DVhzGqx/+NzkbeIMvOxs+Sd8C9k0IfVlEbDP7UZoryGkApgKdbQCqDXu3VC8zS1AdJHMY8LG2axmFhyk/P6+f7/WPiHiyriTVssh2lGWRbYEXAMvWFb8hu1L2BUytzmqxhZC0GOXApQyXAcyeAXgHcExCkseA9SPi9oTYZtZxkpYFfga8ou1ahulxYBrl0+zZwCVtnORZNU0bU5qB2Y3BlnRjpmA68M5qU7YtQPU45SlJ4V8fESfObgBWA+4g5zGbH0TEuxPimlmHSVoPOI3eP8r3Msrm3rOBC6oryHtO9bz4nsB/AC8HFmu3okU6DPhURHTxArd0kk6g3MZYtxnAKhHxsCJidrLzgSkJyWYCW0bENQmxzayDJG1CGVB79UKZO4AfA8dGxNVtFzNSklYCXktpBnaid89QOBZ4h5uAeVUzPP8CVkgI/9uIeBnM+6bImmoYT+n0zMxmD/5/oPcG/8coe5Z2B9aOiE90cfAHiIj7IuJ7EbErsDblIKVLWi5rKG8Djq4ey7anbUPO4A9l1g2o9gAASNoAuCEpIcDOEfHHxPhm1uMkPZ/yyX/1tmuZy23AVynLlZ14bHm0qsed96cMvL10n8KREfHBtovoFZL2Bw5NCr9uRNwCc80ARMSNlItqsnyteqzOzAaQpE0pn/x7ZfD/B/Be4LkRcXi/D/4AEXFDRLyLcrDMDylLtL1g3+q+BytelBT3otmDPzxzXehnSUmhTGkcmRjfzHqUpM0on/x74Xz4a4C3ABtGxHcH8X6OiPhHRLyDcgLqcfRGI/Cfkg5pu4ge8VhS3G/N/S/zNwBHJSYGeLek/RLjm1mP6aHB/xbgdcDmEfETn0pXZn6rG1M3BX4KtL0Z71PVHRCDLuPG2LuBeR69nKcBiIh7KbsyM31N0m7JOcysB0haB/g97R7tOwP4IvD8iPhlzN74ZHNExPURsRewGXByy+UcJOkTLdfQtowG4Oj5Z7s0/98FSRtR9gJk7sq8H9guIjL+kGbWAyQtQzk0Z4sWyzgb2Dcirmuxhs6R9GbKdPGKLZbx4Yj4Rov5WyNpR+DcGkM+CTwnIu6Y+z8+49nQiLieuR4TSLIicLqk9ZPzmFkLqueYf0p7g/+dwJsj4sUe/EcuIn4KbA6c2WIZX5e0d4v523Q+cFGN8U6cf/CHIWYAACS9CGjikb37KZdD/L6BXGbWEElfAT7aUvpfAe+KiAdayt9XJL0f+DL13xg7HI8Dkwfx7gBJLwT+VEOo+4FtIuLm+X9jyNOhIuJc4H9rSLwoKwJneGOgWf+Q9C7aGfxnAB+KiNd68K9PRBwFbEU9g9FILQH8QtJyLeRuVURcwNifzAtg76EGf1jADABANT1/NbD4GAsYru9T1uoG7pEcs34haSfgdzR/Dv1NlNnEXjztri9IGg98HDiI5i8dOjEiMs7F72mS1gR+A2w9yhBfjogFbqhc4PnQ1Qa9r4wy6Wi8G7ig+gFiZh0j6bnAL2l+8P8VsLUH/1wRMTMiDgV2oDxS1qTXDeJMcbVu/2+UD8gjMRP4NvCphX3RAmcAACQtRXkiYJ0RJh+r04D9IyLzZEIzq0n16fB8YHKDaQP4eET4BLmGSXoecAbQ5EbuGcCOEVHn5rjOkPR24AhgmUV86dmUJyiuWmTMRT0SK+m1wInDrLFOM4EfAJ+NiDtbyG9mw1Qd3nJQgylnUNY2j28wp81F0qqU6eltG0x7C2VD230N5uwZ1XH6LwR2BV4MbAzcDPydcnbAtIgY9v69RTYAVdITKVdLtuFRyozAKcDpEfFgS3WY2RAkbUvZINbU5TKPAK+JiN81lM8WQNLSwC8oNyg25TfAK32g09gNtwFYDvgLzU73DOVJyuEIpwKnLmhno5k1o1omvJRyuUwT7gb2iIi/NJTPFkHSBOB7wNsbTPvJaj+CjcGwGgAASVsCFwBLplY0Mg8Ctw/xuoeyPmjWZbOAG4GrI+LJtosZiqQjgQ80lO4m4KU+QbQ3Sfo8cGBD6WYCe1AudlqWsi4++9fFKbNED1Wvh2f/GhFPNVRfJwy7AYA5z/eOdDeimY3N48CVwMXA13tlAJT0cuD0htLdBEwZ6jQz6x2SPkA5QjjzKPmxeAy4Dbh+/tcg7jUbUQMAIOl/aHaqx8yeNh34JHBEm2ugklYGrgLWbCDd3ZTBvycaH1s4SZ8G/rvtOkbhIcrZN+dQdtJPi4jHW60o2WgagCWAX1N2IJpZO84F3hIR/2wjuaSjgPc1kOoRYGev+XdLn3xQfIKyufXs6nVRvy0hjLgBgDk7P88EptRekZkN158pn4wbvdde0ubAZcD45FQzgH/3bv/ukbQYZYzYpe1aavQA5YmH44Dz++EphFE1ADDnyYCzgEm1VmRmI7F/RHypyYSSfgfslpwmKLf5+Tn/jpK0IuUT9MZt15LgZuDHwHERcUPLtYzaqBsAAEkrUdZLNq+rIDMbkScox+A2cmqmpFdSHsPN9jGf8Nd91fHQFwKrtl1Loosoh9b9KCKeaLuYkRhTAwAgaXXKkZBb1VKRmY3UzyLizdlJqmnda4ANklP9KiLaOnjMalZda3s25Wa/fnY75f6coyNietvFDMcCLwMaroi4i3I5xEljL8fMRmG7hvJ8kPzB/ybgnck5rEHVtbZ70/9ns6wFfA24WdInu3CF8ZhnAOYEkgR8nkXcPmRmKVaKiPuzgktahXIo0QpZOSib/qb4Vr/+JOmLwAFt19GgByiX93w5Ih5uu5ihjHkGYLYoDgTeQjm4xMya84Lk+J8md/CHcrOfB//+9TnguraLaNAKwGeA6yS9se1ihlJbAzCXn9LO7YFmg2ztrMDVZt93Z8Wv/Coivpmcw1pUbZB7F+WI60GyFnC8pN9J2rDtYuZWawMgaUngeMosgJk158rE2O8Hlk6MfydlYLA+FxF/ohwVPIh2A66S9N/VWNm6OvcArEW5stfnApg16wlguYiYUXdgSYtT7mBfve7Yc3lzRPwsMb71kOoguauBdVsupU03Ae+IiD+2WUQtMwCSJlEuKvHgb9a8KzMG/8pbyR38z/bgP1gi4lFgn7braNl6wFmSPi0pYyl+WMacWNJulHPJ1xp7OWY2CilH5VZP9nw0I3ZlBrBvYnzrURHxe+CYtuto2XjKpUmnS1qtjQLG1ABI2pEy7d8T6xlmA+jvwCFJsf+d3GNcvxoRg7Qr3Ob1UcrhOYPupcBlknZqOvGoGwBJ21JuBVyqvnLMbASCso6YderYx5PiQtlX8PnE+NbjIuIBygZTKzPoZ0k6sMmko2oAJG1BOf635086MutjX4+I8zICS9oa2DEjduWjXTku1fJExKmU0/OsLAl8XtIxkrJv2gRG0QBI2oCy5rhS/eWY2TA8SjmWN3N9PvNugWuAXyXGt27ZH2h1N3yPeQdwUhOPCo6oAZC0FOUvbisbFsyMPwJbRMSRWfeRV5v/Mk8u+2I/3KVu9YiIp4DXA2e2XUsPeSXwW0mpp2+O6BwAScdSHgsys3xBOX//kup1MTAte/CUNAU4Pyn8P4ANI2JmUnzrMEn7AF8Flm27lh5xNfCyiEjZLDnsBkDSe4CjM4oYhaDcwXw5ZRfp/K97/AnDbHQkHUFZYsjw3oj4blJs6wOSVgVeUb1eCixDOT54FvAg5Wf8bUP8Ovuf76OcXLls9Vqu+nVdYCPKky0bUZ7Fn9DMn2pMbgF2iYib6g48rAZA0guAacDidRcwAjMod0qfDJwaEXe0WItZX6o2H91GzuE/twHPTTy0yGzYJC0GbAnsCuxC2fSaeeT1WPyNclPm3XUGXWQDUB3beBWlW2rDWcB3gdN79UpFs35RHeyVcrAQ8J8RcXhSbLMxqRqCbSkzD28B1mm3ome4DNg5Ih6qK+BwGoBDKbs0m3YFsH9EeGOIWUMkfZ+ci3keA9ao84eXWZZqI+xOlD1vr6N3Hnn/A7B7dbPimC20AaiuLrwKmFhHsmG6hXKH8k8iYtCujTRrTfUJ6C5gxYTwx0fEfyTENUtVPY73VsoH4ee2XA7AL4E31DE+LuoxwCNobvCfCXwa2CgijvPgb9a4SeQM/gA/SoprlioiHqs2rm4EvA1o+/jq1wJH1hFogQ2ApFdTdmA24QHgFRFxSF1TG2Y2Yjsnxb2DvH0FZo2IiKci4jhgU8o5GTe3WM77JL13rEGGbAAkLQE0tVnnemB7r/WbtW7npLg/9nP/1i8iYlZEnEBpBL5IeUKtDV+vjuUftQXNALwNeM5YAg/TmcDkiLihgVxmtgCSJgBTksIfmxTXrDURMT0iPkV5lPDsFkpYAjhB0jKjDfCMBqDa/fiRsVQ1TMdSpv0faCCXmS3cJHKegb4sIq5OiGvWEyLiuoh4MfBhyl62Jm0EfHu03zzUDMAryL0DHMqhQvt4WtCsZ+ycFPfXSXHNekpEfAPYg7KnrUlvlfSO0XzjUA1A5g1jALcCr/FpYGY9ZeekuG1MjZq1IiJ+C2wPNL2s/S1JI/7gPs85ANWRv5fUWdV8plOOM7w8MYeZjUC1/n8/5cz1Oj0OrOAne2zQVLf4/ZzmnqQDOCcidhnJN8w/A5B1AQiUC3z29uBv1nO2oP7BH8rNhR78beBUe9v2AL7RYNqdJb1lJN8wpwGoLgHZs/aSnnZMRJyYGN/MRidrz4+n/21gRcTMiPgwsA/wZENpvyJp+eF+8dwzADsCK9VfD1Cm/v8rKbaZjc0GSXHdANjAi4jvAy+mXGWcbXXgkOF+8dwNwNT6a5nj8Ii4PTG+mY3ehgkxHyZ3P5FZZ0TEecCbaOYxwfdX+/kWae4G4FVJxdwDHJYU28zGLqMBuCIinkqIa9ZJEXEG8IkGUo0Dvl2d6bPIL0TSlsC6ScUcHBEPJ8U2s7HLWAK4PiGmWadFxNeA/2kg1XYMY1Z/9gzAy5OKuBU4Oim2mY2RpNWAYW8aGgE3AGZDex/wpwbyfHpRXzC7Adg6qYATI6Kp3Y9mNnJZGwDdAJgNoToE79WUD8iZtpG0+8K+YEL161ZJBZycFDeNpOWANYd4rQY8RLnadP7XPTH3iUpm3ZGx/g9uAMwWKCLulvQq4Hxy7uCY7TPA6Qv6TQFLUXbsLuhmwNG6B1gjImbVHLd21ZWKU6vXaGZD7gBOpTQ8Z/uYY+t1ktYGdgfeAwxrx/AIPAUs5dk/s4WT9FrgF5SxOMuLI2LIR3JFObf4woSkx0TEuxLi1kLSjpRpmKnAejWGfpjScZ0MnBoRj9aopKzMAAAUVklEQVQY22xU5rrud4/qtVliuhsjImtmwayvSPo8cGBiij9ExK5D5qZ8AsjYqLdnRJyWEHdMJE0Gvgzs0EC6O4HPAj/wzYfWNEmrU2733AN4CbBcQ6nPjIisjcVmfUXS4sCV5C3HAUyKiL/M/x/HAZsnJJsB/P/27jxar7K64/h3BwhTwoyAyiSRJOLIFGUQQSgOGMGBRQpEVNBqKuLUMLTL6qoCroqmRQotURGCAraEUMuMWYKGRRAMSAlRCksIECDILCGGX/8458aby01yh7PPec97f5+17oKE3P1sWLz37PMM+7kuIe6QRcTrI+IyYB71PPwBtqUoru6KiA/UNKaNcBGxc0ScS7HJaCbwYep7+EM9Hc/MukJ5X8a05GGm9vebo4CtEgZ7RNKLCXEHLSK2jIizgbuBjzSUxkRgTkTMjYjdG8rBulxETIiICyiuIv00MLqhVJ5raFyzVpJ0PcXtgVmmlMuAqxgFbJYw2CMJMQctIt5E0Y50GrBew+kAHADMi4jjm07EukdEvCUiLqUocqfyl9M9TXHjL7PB+yJ5n52tgUP7/mbXFgARMZmi2cJODafS12jgPyJiRnkDo9mQRMReEXEl8Bvgo1R/kmeoPANgNkjlfTnfTRzi2L6/kVUAPJoQc8Ai4mTgcnLuOK/KicDVEbF504lYu0TEuhHxTYrTO4c1nU8/PANgNjQzyCugP1j2uVmpq2YAyh+MFwGn0zlvQ2tyMHBrRIxrOhFrh4jYBfglcAqd+/+4CwCzIZC0FDg3KfwG9NkH11UFAPAvwNENjT1U44CrPBNgaxMRU4E7KC766GReAjAbum8DWZvoX1EAbJAwSO0/ACLib4HP1D1uRcYBl3pPgPUnIjaNiIuBC4CxTeczAA80nYBZW0l6lLwbA/fvfRqgU6cQByUiDiF380QdDgbOajoJ6ywRsQ/FJr8pTecyQC8DtzedhFnLzUyKO4ZeM4itLwAiYjxwKdANb88n+oig9YiIKcAv6LyTLGtyryQvAZgNQ9m1756k8CvbAre6AChbKM4hZx9DU77nZkEWEUcCF9K+wva2phMw6xIXJsXtjgKAosFPt106MhovBYxo5Q1hs2jfwx+KfQpmNnyzgIxr5t8RERtAiwuAiNiU3BuUmnSA7w4YmSLicODHNN/NbyjOlXRD00mYdQNJf6A48lu1DYB9oMUFAHAysEXTSSQ606cCRpay6LuUzmhbPVj3A19pOgmzLnNNUtz9oKUFQES8Bvh803kkmwh8sukkrB4R8T7gp7Tz4b8UOMab/8wqd31S3InQ0gIA+Edgw6aTqMHXImLjppOwXBFxAPBfNHd733BcCbxR0q+aTsSsC80HnkmIOwFaWACUD8S2dfsbqm2ByU0nYXkiYguKzT7rN53LID0MfFzS5LJxiZlVTNIKYG5C6F2jv/uBW+BQ6n/7XwzcCWxPMXVS59p8z6Yw607nAa9pOonVeImirffDwEPAXRRNfm6X1PiNn2YjxM+p/kVwI2CHNhYAh9cwxgrgHOA6YH7vN5yI2Ah4G0U3pS8Dr07O5b0RMVrSS8njWM0i4mP06c3doEXAbIq3jcUUD/2lkjKOIZnZwP02Ke6EIOec4RRJP6k6aDljsYTc3f93A8dJWmtDk4jYjOL6xqmJ+QC8V9LVyWNYjSJiZ2ABzfX2F8X64mxgtqSsrmNmNgwR8VrgwYTQJ7VtD8A7yX34fwvYYyAPfwBJT0n6GMX0zBOJedUx62E1KY93XkQzD//lwNnADpImSTrdD3+zjrYYeD4h7vi2FQAfTIw9S9J0ScsG+42SrgQ+kZBTj8kREYnxrV6nUDbiqJGAnwATJX1O0kM1j29mQ1Auwy1KCL1l2wqAtyTFfRQ4cTgByiLgR9Wk8wrbAVsnxbYaRcRewFdrHvYGYC9JUyTdV/PYZjZ8CxNijm1bAZC14e7Tkp6sIM7nKTZPZdguKa7V6yzqa/O7DJgq6eDydjEza6fHEmK6AABulTSnikCSngL+uYpY/XAB0HIRsS9lC84aLAEOlJR1o5iZ1Sejy+aY1hwDjIhNgIyueLd2eLweLgDab3pN4ywAJpeXiZhZ+2VsAmzVDEDW9H/V95ffQdFHoGouAFosInYDDqthqCuA/fzwN+sqKTMALgAqLgAkvQBkHKtyAdBu04HskxxXAB/ypTxmXSfjM92qGYBNkuJmNFjIiJn172/JImJHYEryMAsobuR7OXkcM6tfRifY9dtUACxJivvmlsTM2AVq9fgSuTv/l1Cs+fvN36w7bZQQ8/k2FQBZx+v2rDJYRGxLzuUuvnylhSJiK+CTiUMsA47wmr9ZVxuTEPPZNhUAj5Bzb8FeHR6vhwuAdppKTvXe4wRJ8xLjm1nzMgqA51pTAJS34S1NCL1/RFR5F/shFcbqzQVAOx2aGPsGn/M3GxEyjsC3agYAcpYBtge+VkWgiNgT+GwVsfrhAqBlImIDYP+k8KK+vgJm1qyMi8PaMwNQWpwU98sRMWk4AcpZhB8C61SS0Su5AGif/YENk2Jf6va+ZiPGjgkxWzcDMDcp7jrADyNiOD+svw7sVlE+fd0h6Zmk2JYnazloOXBaUmwz6zzjE2K2rgCYnRh7AvDr8ra2AYuILSLiIuDvctICcv+9Lc9fJcU9z7f6mY0METEa2Dkh9OJWFQCSFpHTZa/HRGBeRHyj/I++RhExGbgbODoxJ3AB0DoRsQ05/SAEnJkQ18w60zhylpYXtuYyoF5mUzyos6wDnAocHRE3U7QKvg24k2LD4J7l197lV7b7Jd1ZwzhWrUPIaf07X9JDCXHNrDNlTP9DiwuAU2oYZ8fyK/vtfm389t9OWdP//v/BbGSptFldLwtbtQRQmg+MpDegy5tOwIYkqyGUCwCzkeXghJiPS3qydQWApJG0BnqzpJuaTsKGZJuEmIskZe6BMbMOEhGbAnskhF4I0LoCoHQeMBJ2QX+l6QRs8MoNpJsnhPbbv9nIciBJGwChpQWApJFwDvo/Jd3SdBI2JK9Kijs3Ka6ZdaZ3J8W9C1paAJQuBbq1E9py6tnoaDmyCoCsTphm1mEiIoDDksLPhRYXAOVegG7thf7vkn7XdBI2ZBnr/5B3JbaZdZ59gZ0S4j4O/BZaXAAASLoB6Lbb0B4Avtp0EjYsGQVA1m2YZtaZjk2Ke2P5At3uAqB0AtAt96E/B0yW5B/07ZaxBPBIz4fWzLpbebnckUnhb+z5m9YXAJKWAUcAf2g6l2F6GTha0l1NJ2LDljED4Ol/s5HjMGCzpNjpBUBGC9TVkrQEmEzxBt1Wp0ma03QSVomtE2IuSYhpZp1pWlLcByX9vucXo4DnEwbZMiHmGklaABxD8SbdNrMkndF0ElaZlxJibpoQ08w6TES8g+L8f4Zre/9iFPBswiDbJcRcK0lXAB+iXTMB5wDHNZ2EVSrjM/XqhJhm1nn+PjH2xb1/0VUFAKwsAvaj8/cE/Bn4rKRpkv7cdDJWKRcAZjZoEfE24H1J4R+iTzOxrisAYOVywN507umAJ4FDJf1b04lYiozP1NiIGJMQ18w6xz8kxp4laZUl8q4sAGDlxsAD6bw+AfcAkyTduNY/aW2V8ZkCzwKYda2IOIjiRFuWVzwLR5Gzu7jxAgCKI4KSplJcp9h02+AngJOAt/behWldKWvHvgsAsy5UXiD2vcQh7pB0d9/fHEV5K1DFto6IjvlhVXYM3As4ivpvEXwB+Cawi6QZkjJ2iFtnWZQU961Jcc2sWV8GJiTG73cmfBRwb8JgQXEuv2OocAkwEfgcxYaITH8CzgdeL+k0Sc8kj2ed4z5yjqN+MCGmmTUoInYid+f/i8Cs/v5BVgEAcHhS3GGRtFzS2cAOwCTgdIp1+SosBS6gOIq4laQTJLmD2wgj6UXgwYTQ+0dE7T02zCxHRKxH8czYMHGYmZIe63d8YAw5m5ZeArZuy5tvROxKUbS8C3gNxXrrlqy+q+FzFO1ZHwZ+A1wB3CRpRXqy1vEi4lrgkITQx0m6ICGumdUsIs4DPpU4xHJgnKR+j8WHJCLifnKuHZwi6ScJcWtRbszYjqIY2AZ4mvKhLylrp7d1gYj4DsWmz6pdLulDCXHNrEYRMQ04O3mY70v65GpzKAuAH5DTje4SSUclxDXraBExmWJWqGovUCwv/SkhtpnVoDzydw2wbuIwK4AJazp11nMZUNaZ9MmddBrArEZzKT6AVdsIODohrpnVICJ2AS4j9+EPxQv4Go+c9xQAP09KYEPg60mxzTpWufdlflL4r0XERkmxzSxJRIwF5gBbJA8liuPnazQKQNJD5J1dPi4idkuKbdbJrk+K+2py9heYWZKIGEVxGc8bahhuZn+Nf/oa1evvr0tKZB3gzKTYZp3smsTY0yNiq8T4ZlatbwKH1TDOUuDkgfzB3gXAj3NyAeD9EXFAYnyzTvRL8m6l3ITc5iFmVoGIGBURZwDTaxpyuqSlA/mDKwsASb8E/i8tJTirPFZnNiJIEqvpwFWRz0TExMT4ZjYM5Zr/FdT38J8HfH+gf3hUn19fVG0uq9id3MsOzDpR5m2Uo4E5EZG9ocjMBqnc7X8L9Uz7Q3Hq6DPli8eA9C0Asq/OPT4iTkwew6xjSLqH3JsoxwGXRUT2kSIzG6DynP+t1LPhr8e/SlowmG9YpQAozwz+otKUXumsiDg4eQyzTjIzOf5BwIzkMcxsAMoOf9eQf9Svt3uBfxjsN0Xf2YKIeA9wVUVJrc4fgb3X1qTArBtExAbA/cC2yUNNk3RO8hhm1o/yYp+zye3t358XgUmS7hzsN/ZdAkDS1eROWQJsDlwVEeOSxzFrXHk74LdrGGpGRLhLoFnNyit9r6f+hz/ASUN5+EM/BUDpG8NIZqDGAbd6OcBGiHMpzudmWhe4KCJOL5uOmFmiiBgdEacC/wu8s4EULpF03lC/eXU/JGYDa+0iVIHNgau9MdC6naTnqG+d/mTg8ogYU9N4ZiNOudFvAcUL84YNpHAfw5xxeMUegJX/IOL9wH8PJ/ggnU+xhvlSjWOa1aY8E7yQopVvHe4CJkt6oKbxzLpeRLyNYsPdEQ2msQzYR9Ltwwmy2mlCST+jmAmoy/HAPHcMtG4l6VngizUO+SbgtoiYVm5QMrMhioh3RMTPgNtp9uG/Apgy3Ic/rGEGACAidqBY29h4uAMN0pUU7QzvqXlcs3QRcR1Q996X3wGnSvppzeOatVZErE/RyGcacGDD6fQ4QdL5VQRaYwEAEBHTgTOqGGyQVlCcn/6qpEcbGN8sRUTsCtwJrN/A8LcAX5F0cwNjm3W8iAhgX+BY4Ehgs2YzWsUpkip7Hg+kAFiP4ofG7lUNOkjPU8wIXAFcJenphvIwq0xEnAb8U4Mp3ARcDsyWdH+DeZg1LiI2pXjDfzfFG/9OjSbUv+9IqnQJca0FAEBEbE/R1jC7kcnaLKfoVDgHmOPNTdZW5VvGZcCHm86FYjZiNkUxcEfTyZhlKi+lGweMB/akWI7bg+Lq+k51IfCxwfT5H4gBFQAAEfF2YC7NTFuuztPAw/18PQ5U+h/KutqTwO2Snqhz0IjYGLgZeGud467FM8Aj/XwtoSjAzTrdKIp9a2PKr42BscCOFA/9nensh31fFwKfkPTnqgMPuAAAiIhjyL8wyKwpDwC3AVdK+lEdA5YbbecDr6pjPDNrle8AX6r6zb/HoAoAgIg4g/ruNjZryrXA8ZIezB4oIvYBfk5xva+ZGVS84a8/QykARlFsHpqckpFZ53gG+FwdswER8XHg+9njmFnHWwH8TVVH/dZk0AUAQNli9FcUjUbMutnLwLsk3ZQ9UER8m3obBZlZZ1lG0eTn8joGG1IBACtvP7oV2LrCfMw60X3AmyW9kDlIRKxD0X77PZnjmFlHug84sooOfwM15BvDyiN4H6DYcW/WzXahhmZYklYAR1Gc0TezkeMSYPc6H/4wjBmAlQGKmYA5eDnAupuA7SQtyR6obL51DsX9GGbWvV4EThrOlb7DMew7w8uZgH0oigCzbhXAXnUMJGm5pBOAkyg2BJlZ97kXmNTUwx8qKABg5V3nRwBnVhHPrEPtWedgkmYA7wOeqnNcM0u1AvgusKekO5tMpJICAEDSy5JOprhAYVlVcc06SK0FAICka4FJwKK6xzazys0D9pD0hfLFuVGVFQA9JF0EvAvwDX7WbbZvYlBJiyiKgGubGN/Mhm0pxZ6efSUtaDqZHpUXAACSbgH2Bmrd0WiWrLHpOklPUSwHzGgqBzMbNAHnA+Mlzcxq6TtUKQUAQNlC9e3AyRRX+pq13W1NDi5phaSTKK4sXdhkLma2RiuAi4E3STpB0tKmE+pPWgEAK3cznwm8geK6UbM2m990AgCSbgTeApwKpDYnMrNBWU7R0nuCpKMl3d10Qmsy7D4Agxos4v0UJwV2q21Qs2o8Aewg6U9NJ9Jb2YfjTOAjJBf0ZrZaLwIzgW9J+kPTyQxUrQUAQEQEcDhwGrBHrYObDd1Rki5pOonViYgJFDMCU4B1G07HbKS4A7gQmCXpsaaTGazaC4BVBo94D3AK8M7GkjBbu59K+mjTSQxERLyO4rruY4ENG07HrBs9BMwCLuz0Kf61abQAWJlExDiKH1jHAK9rOB2z3h4D3iipVXdeRMRYimWBY4ED8PKA2XA8SHEM92JgrqSXG86nEh1RAPQWEftSTGMeAuzacDo2sv0P8ClJi5tOZDgiYnvgr4HDKPoJrNdsRmYd73Hgxp4vSb9vOJ8UHVcA9BYRrwUOBA6iaC60U5P52IjxNPAFST9oOpGqRcTGwH4Un6mDKE4TuCCwkexximO1C4G7gLnAbzvtzH6Gji4A+oqIMcD4Xl8TgG2AsX2+Nm4qR2ulPwK/pjjnfxvwi7ZN+Q9VRKwL7MxfPk/jKQrtscAmrPq58jKCtcHLwHPAs/389VlgMX954C+U9GRDeTbu/wG7zMnlbuEiigAAAABJRU5ErkJggg==;" vertex="1" parent="1">
          <mxGeometry x="340" y="90" width="70" height="70" as="geometry" />
        </mxCell>
        <mxCell id="T2kzDkr0WhVx5to_5DXp-3" value="" style="shape=image;verticalLabelPosition=bottom;labelBackgroundColor=default;verticalAlign=top;aspect=fixed;imageAspect=0;image=data:image/png,iVBORw0KGgoAAAANSUhEUgAAAgAAAAIACAMAAADDpiTIAAAAA3NCSVQICAjb4U/gAAAACXBIWXMAACBsAAAgbAGr64JSAAAAGXRFWHRTb2Z0d2FyZQB3d3cuaW5rc2NhcGUub3Jnm+48GgAAAvRQTFRF////AAAAAAAAAAAAAAAAAAAAAAAAAAAAAAAAAAAAAAAAAAAAAAAAAAAAAAAAAAAAAAAAAAAAAAAAAAAAAAAAAAAAAAAAAAAAAAAAAAAAAAAAAAAAAAAAAAAAAAAAAAAAAAAAAAAAAAAAAAAAAAAAAAAAAAAAAAAAAAAAAAAAAAAAAAAAAAAAAAAAAAAAAAAAAAAAAAAAAAAAAAAAAAAAAAAAAAAAAAAAAAAAAAAAAAAAAAAAAAAAAAAAAAAAAAAAAAAAAAAAAAAAAAAAAAAAAAAAAAAAAAAAAAAAAAAAAAAAAAAAAAAAAAAAAAAAAAAAAAAAAAAAAAAAAAAAAAAAAAAAAAAAAAAAAAAAAAAAAAAAAAAAAAAAAAAAAAAAAAAAAAAAAAAAAAAAAAAAAAAAAAAAAAAAAAAAAAAAAAAAAAAAAAAAAAAAAAAAAAAAAAAAAAAAAAAAAAAAAAAAAAAAAAAAAAAAAAAAAAAAAAAAAAAAAAAAAAAAAAAAAAAAAAAAAAAAAAAAAAAAAAAAAAAAAAAAAAAAAAAAAAAAAAAAAAAAAAAAAAAAAAAAAAAAAAAAAAAAAAAAAAAAAAAAAAAAAAAAAAAAAAAAAAAAAAAAAAAAAAAAAAAAAAAAAAAAAAAAAAAAAAAAAAAAAAAAAAAAAAAAAAAAAAAAAAAAAAAAAAAAAAAAAAAAAAAAAAAAAAAAAAAAAAAAAAAAAAAAAAAAAAAAAAAAAAAAAAAAAAAAAAAAAAAAAAAAAAAAAAAAAAAAAAAAAAAAAAAAAAAAAAAAAAAAAAAAAAAAAAAAAAAAAAAAAAAAAAAAAAAAAAAAAAAAAAAAAAAAAAAAAAAAAAAAAAAAAAAAAAAAAAAAAAAAAAAAAAAAAAAAAAAAAAAAAAAAAAAAAAAAAAAAAAAAAAAAAAAAAAAAAAAAAAAAAAAAAAAAAAAAAAAAAAAAAAAAAAAAAAAAAAAAAAAAAAAAAAAAAAAAAAAAAAAAAAAAAAAAAAAAAAAAxRfo/QAAAPt0Uk5TAAECAwQFBgcICQoLDA0ODxAREhMUFRYXGBkaGxwdHh8gISIjJCUmJygpKissLS4vMDEyMzQ1Njc5Ojs8PT4/QEFCQ0RFRkdISUpLTE1OT1BRUlNUVVZXWFlaW1xdXl9gYWJjZGVmZ2hpamtsbW5vcHFyc3R1dnh5e3x9fn+AgYKDhIWGh4iJiouMjY6PkJGSk5SVlpeYmZqbnZ6foKGio6SlpqeoqaqrrK2ur7CxsrO0tba3uLm6u7y9vr/AwcLDxMXGx8jJysvMzc7P0NHS09TV1tfY2drb3N3e3+Dh4uPk5ebn6Onq6+zt7u/w8fLz9PX29/j5+vv8/f5K0XlrAAAURElEQVQYGe3BeWCU5Z0H8O8kEDKJApHDBw+q1lIIIYoHFhUH2oIi1bpi0Roua60t4tW6bqGuUiseyJG0dSWo0NZiqQy1bMUDBUICrCx4i7gcWlHRJEQ5c8z3nxXNIBRm3snzHvO+z/v7fICQinQ7fcT1Ux5ZUrPura0ffdrUWP/eW2uX/fcTjzww4aLe+RAmO2bwTXNe2s3UEu+vmHvnVadAGCfnzNv+/k9maPtTv/xORwhj9J7w1zq2UctrleO6QQTfgGnvUlNL1W3fhAiy0+/ZRHveuu/cHIhA6nL7Bjph+3+dBRE4/efsoWPWTegEESDtRlXRWbsfOw8iIHLGbqEL3ri1CCIALn2NLvl0ajcIn7ugmi7a9WAPCB87YRFdtve3PSF8KvKzT+m+xtmnQPhR7yp6o6m8CMJv2k3eS8988rNcCF/pupSeemUwhI+cvpleW3AShF9cuYve2zOlAMIPcu5ldmyOQWRf0dPMlsT0fIgs67uRWfTm2RBZ9f3PmFVNU9pDZM8Pmplt/1sCkS3fb2L27b0tApEVF++jL8zPh8iCoXvpE6uOhfDc4N30jS0lEB47byd9pOFCCE+d/Sl9pXkChIe6vUe/uQ3CMznP0H/GQ3jlTvpQ8yUQ3hjWQj/acz6EF078mP60oxTCfe1r6FcfnALhurvpX+vyIFzWp5E+Ng3CZS/QzxLfhXBVGf1tW1cIF3X+kD63CMJFFfS96yGc1+n8G37/5PI3P6b/7ToZwlGn/mLhJgbIXyCcc9avX2PQnA/hDDX1PQbQ2giEA0763R4G0zgI24rnNjGothVC2NP9iQQDbAqELSM+YqDt7gahr+AhBt0dENrO3sDA254PoScyqYkG+AmEnt/RCG9FIHRU0BCXQGgopymWQ7TdLJrjNIi2mkmDPADRRtNokvdzINrkMpplCERbdP2IZqmEaIsnaJgd+RCZG0XjjITI2LGf0Dh/hchYnOapz4HI0GiaqD9EZrrX00S3QGRmCo0Uh8hI9GMaqS4HIhPX0VCnQ2Qg8gYNdTNEBi6iqRZCZOAZmqo2AmGpH811GoSlSprrJggr3ffSXE9CWJlMg30SgbCwliYrhUjv2ARN9iOI9MbRaPdApDefRnsCIq3cehptLURa59NsDRBp/YaG6wqRznoa7hyINI6j6X4IkcY4mu5XEGk8SNM9BpHGP2i6Kog0ttB0H0CkVpCg8QohUupP85VCpPRDmm8YREpTaL4rIFJaQPNdC5HSKzTfrRApbab5/hMipQ9ovukQKdXTfJUQKe2h+RZApJSg+Z6BSKUDQ2A1RCqdGAJvQqTSlSGwDSKV3Baarw4ipQ9pvk8gUlpH822HSOkfNN8HECnNofneh0jpbprvXYiUfkbzbYFI6Rya7/8gUmq/m8bbCJHaCzTeWxCp/ZrGWwuR2oU03lKI1Dq10HRxiDSeoekeg0hjNE1XDpFG4U4a7m6IdObScLMg0vkODfckRDo5r9NsqyHS+gHN9k+ItCKv0mjNuRBpjaTZjodIK/I/NNoAiPROa6LJ/g3Cwm9osokQFvLfpsHuhbCykAb7A4SVJTTYCxBWqmiwVyGsrKPB3oGwsoEGex/Cyj9psDoIK/U02B4IK/tosghEeu1otAKI9DrRaF0g0utBo50AkV4xjVYMkVbpOzTaO6UQaYzZTcPtHgORSoeHGAIPdYA4oq5rGAprukIcQftlDIll7SEON5uhMRviMDcxRG6C+BdDmxkizUMhDtGrnqFS3wviIDnrGTLrcyC+cg1D5xqIAwq3MXS2FUIk3cEQugOiVUEDQ6ihAOJL4xlK4yG+VM1Qqob4QglDqgRiv3sYUvdA7LeGIbUG4nOdmxlSzZ0hgEsZWpdCADMYWjMggGcZWs9CAJsYWpsg0K6ZodXcDuLrDLFTIYYwxIZAfJsh9m2IQQyxQRADGWIDIc5miJ0N0Z8h1h+ihCFWAtGbIdYb4usMsa9D9GSI9YQ4jiF2HEReI0OrMQ8CLzO0XoYAHmNoPQYB3MLQugUCGMzQGgwBFDG0iiA+t5UhtRViv0UMqUUQ+93JkLoTYr/LGFKXQex3MkPqZIgv1DGU6iC+NJehNBfiSyMYSiMgvpS3gyG0Iw+i1aMMoUchkoYzhIZDJLWvZ+jUt4c44BGGziMQX7mIoXMRxFfa1zFk6tpDHKSSIVMJcbAzGTJnQhxiEUNlEcSh+icYIon+EP9iIUNkIcS/Kk0wNBKlEIdZwNBYAHG4kgRDIlECcQTzGRLzIY6k126Gwu5eEEd0HUPhOogUFjAEFkCk0nkrjbe1M0RK5zbTcM3nQqQxmYabDJFOzos02os5EGkVraHB1hRBWOhUTWNVd4KwdNRyGmr5URAZKHyeRnq+ECIj0adpoKejEBnKndRIwzROyoXI3Jlv0ihvngnRJtHyBI2RKI9CtNV319EQ674LoePiGhqg5mIIXUOeZ8A9PwTCjp43r2hhQLWsuLknhG3HXvvw2n0MmH1rH772WAin5I1ioIzKg3DWcwyQ5yCcNoABMgDCcQsZGHEI55W0MCBaSiBcMI8BMQ/CDac0MhAaT4Fwxe8ZCL+HcMdxuxkAu4+DcMn9DID7IdzSpYG+19AFwjWT6HuTINyTv5k+tzkfwkWX0+cuh3DVUvraUgh39WumjzX3g3BZBX2sAsJtx9TSt2qPgXDdBPrWBAj35b5Cn3olF8IDg+lTgyE8sYC+tADCGyftoQ/tOQnCI3fRh+6C8ErBe/Sd9wogPHMxfediCA9V0mcqIbzUcSt9ZWtHCE8NSdBHEkMgPFZOHymH8FrBRvrGxgIIzw1soU+0DITIgnvpE/dCZEOH1+gLr3WAyIozmugDTWdAZMkd9IE7ILKl3UvMupfaQWRN373Msr19IbLo58yyn0Nk1Xxm1XyI7CpYzyxaXwCRZSd9zKz5+CSIrIs1MUuaYhA+cAOz5AYIX5jNrJgN4Q+5C5gFC3IhfKL9YnpucXsI38h/nh57Ph/CRwqr6KmqQghf6fgSPfRSRwif6biYnlncEcJ3cu6nR+7PgfCjsXvpgb1jIXxq4Lt03bsDIXyr4xy6bE5HCD+7eBtdtO1iCJ8r+gNd84ciCP87r4auqDkPIhiu2EjHbbwCIjDaT9xOR22f2B4iSKI/fp2Oef3HUYjAGfZ0gg5IPD0MIpj6VGynTdsr+kAEV+7QOfXUVj9naC5EwOVd+vhOatj5+KV5EEYoGPnbVxJsg8Qrvx1ZAGGSou/dt6qRGWhcdd/3iiBMVDDk5oolm5qZQvOmJRU3DymAMFveN0fcMqNy/uJlaze839Dw/oa1yxbPr5xxy4hv5kEIEQhHD/zprBvPagcfaHfWjbN+OvBoCM/0fvCdBPfb9WIZsqzsxV3cL/HOg70hPNDh6mU8yJ87I4s6/5kHWXZ1Bwh39X6wlofaOghZM2grD1X7YG8I1+RfvZyHazkXWXJuCw+3/Op8CDf0mV7LI3o5F1mR+zKPqHZ6HwiH5ZctZ0o3IytuZkrLy/IhnNNnei3T+LQHsqDHp0yjdnofCEfkly2nhWnIgmm0sLwsH8KuPtNraWlbLjyXu42Waqf3gbAhv2wFMzIUnhvKjKwoy4fQUzy9lhmaB8/NY4ZqpxdDtFl+2QpmbmchPFa4k5lbUZYP0RbFM+rYJmXwWBnbpG5GMUSG8kevYFstgceWsK1WjM6HsFY8o45t19wDnurRzLarm1EMkVb+6BXUcys8dSv1rBidD5FK8Yw66loHT62jrroZxRBHkD+6inb0hYf60o6q0fkQh+o7s472TIWHptKeupl9IQ6Ijqmibe9G4JnIu7StakwUYr++M+vohMHwzGA6oW5mX4RedEwVHTIHnplDh1SNiSLM+s6sp2MaovBItIGOqZ/ZFyEVHbOSjhoFj4yio1aOiSJ8SmbV02FPwSNP0WH1s0oQKtGxK+m8pm7wRLcmOm/l2CjComRWPV0xEZ6YSFfUzypBCETHrqRbVuPICosvvLLNLiwuxJGtpltWjo3CbCWz6umiXjhcwZhl1LRsTAEO14suqp9VAmNFx1bTXXfhMMM/pA0fDsdh7qK7qsdGYaKS8nq6bVMEh8qpoE0VOThUZBPdVl9eAsNEx1XTC+fhUDNp20wc6jx6oXpcFOboV15PbzyEQ0ygAybgEA/RG/Xl/WCEgnHV9ExdHg6idtEBuxQOkldHz1SPK0DQ9SvfQS9dhoPMpCNm4iCX0Us7yvshwArG1dBjT+IrnfbSEXs74StP0mM14woQTP0qdtBz+4pwwDA6ZBgOKNpHz+2o6IfAKRhfw6z4CQ64kw65Ewf8hFlRM74AQVJasYNZUoUD/kiH/BEHVDFLdlSUIiAKxtcwi05G0qN0yKNIOplZVDO+AP5XWrGDWTUZSQ/TIQ8jaTKzakdFKfxt6HJm2wYk3UaH3IakDcy25UPhX8NX0QcGoNXpdMjpaDWAPrBqOHwpcslL9IVytIp8REd8FEGrcvrCS5dG4DeRy9fTJ7a3Q6sH6IgH0KrddvrE+ssj8JOcUa/SP0ag1TcSdEDiG2g1gv7x6qgc+MaoN+kn85H0HB3wHJLm00/eHAV/6LaQ/rKnI1pdTgdcjlYd99BfFnaDD1zyEf3mGrRqt422bWuHVtfQbz66BNl2dCX9ZymS7qJtdyFpKf2n8mhk1aDN9KHEiWh1YjNtaj4RrU5M0Ic2D0L2dLi/hb50O5L+Rpv+hqTb6Ust93dAlpz2Kn3qNSRdRJsuQtJr9KlXT0NW/Ps++lZ/tMrZTFs256BVf/rWvn+H9yIV9LFpSLqdttyOpGn0sYoIPJY7l372QS5add9HG/Z1R6vcD+hnc3PhqQ4L6W/DkPQ4bXgcScPobws7wEOFz9Ln5iHpAtpwAZLm0eeeLYRnOlfT73YWIukNansDSYU76XfVneGR7uvpf2VIupHabkRSGf1vfXd4oucGBsASJHXeRU27OiNpCQNgQ094oNdWBkFzDyRVUlMlkno0Mwi29oLrumxhMNyKpLOp6Wwk3cpg2NIFLst9lgGxDge8TS1v44B1DIhnc+GuqQyMvmjVpZFaGrugVV8GxlS4aiSDYypaXUdN16HVVAbHSLio+DMGx3s5+NIL1PQCvpTzHoPjs2K4puMGBslgfOG4FmpqOQ5fGMwg2dARLoksYqDMwRduobZb8IU5DJRFEbhjMoOlIYr91lDbGuwXbWCwTIYrhrcwYEbhc6fShlPxuVEMmJbhcEGPegbN3/G5SbRhEj73dwZNfQ8471EGTlM3AK/ThtcBdGti4DwKx52VYPBMBEppSykwkcGTOAtOW8kAWg3cQ1vuAVYzgFbCYVcykHphM23ZjF4MpCvhqOhWBtKUb9Gmb01hIG2Nwkm/YjBtKqdN5ZsYTL+Cg47fxYDaS5v2MqB2HQ/nzKMInHlwzDkJisBJnAOn1FAEUA0cMogikAbBGfMoAmkeHFG0hyKQ9hTBCRMpAmoinPAyRUC9DAcMoAisAbBvNkVgzYZtR31GEVifHQW7rqUIsGth12qKAFsNm0opAq0U9kyhCLQpsGcpRaAthS25OykCbWcu7DiDIuDOgB03UATcDbDjTxQB9yfYsYUi4LbAhuMpAu946LuCIvCugL7pFIE3HfpWUwTeamiLNlIEXmMUukopDFAKXUMoDDAEuq6gMMAV0HU9hQGuh65JFAb4JXRNpzDAdOiaS2GAudC1mMIAi6FrFYUBVkHXOxRt8MmHjtpHh2yErnqKzDQ8+csLu8NZeWf8+KFX6YB6aMpNUGRkyQlwR2TibtqWyIWerhSZ2Hk93NOrhrZ1hR5FkYFPToWbcitpl4IeRZGBq+Cugo20SUGPorC2AG47t4X2KOhRFJa2d4Pr7qM9CnoUhaV74b5jaI+CHkVhaSQ8sIm2KOhRFJa+Bg8soC0KehSFle3wwn/QFgU9isLKM/DCRbRFQY+isBKHF2K0RUGPorAShxditEVBj6KwEocXYrRFQY+isBKHF2K0RUGPorAShxditEVBj6KwEocXYrRFQY+isBKHF2K0RUGPorAShxditEVBj6KwEocXYrRFQY+isBKHF2K0RUGPorAShxditEVBj6KwEocXYrRFQY+isBKHF2K0RUGPorAShxditEVBj6KwEocXYrRFQY+isBKHF2K0RUGPorAShxditEVBj6KwEocXYrRFQY+isBKHF2K0RUGPorAShxditEVBj6KwEocXYrRFQY+isBKHF2K0RUGPorAShxditEVBj6KwEocXYrRFQY+isBKHF2K0RUGPorAShxditEVBj6KwEocXYrRFQY+isBKHF2K0RUGPorAShxditEVBj6KwEocXYrRFQY+isBKHF2K0RUGPorAShxditEVBj6KwEocXYrRFQY+isBKHF2K0RUGPorAShxditEVBj6KwEocXYrRFQY+isFIFL1xOWxT0KAoru3Lhgbtpi4IeRWGpBB54mrYo6FEUlsbDAx/TFgU9isLSbLjvVNqjoEdRWGrsD9ctpj0KehSFtZfz4LIf0SYFPYoiA7+Gu772KW1S0KMoMtB0Fdx0wirapaBHUWTkL93gmnE7aJuCHkWRme0jc+CKE5+iAxT0KIpMffbiA6NKejsqdtv8TXSEgh5FYQQFPYrCCAp6FIURFPQoCiMo6FEURlDQoyiMoKBHURhBQY+iMIKCHkVhBAU9isIICnoUhREU9CgKIyjoURRGUNCjKIygoEdRGEFBj6IwgoIeRWEEBT2KwggKehSFERT0KAojKOhRFEZQ0KMojKCgR1EYQUGPojCCgh5FYQQFPUclKAyQOAqa3qYwwNvQ9TiFAR6Hrl9QGOAX0HUBhQEugK7IcxSB91wE2no2UARcQ0/YMJ4i4MbDlkcoAu0R2HRVLUVg1V4F23ospgioxT3ghNLx5dW7KQJld3X5+FJY+39YSlJ45ekoBgAAAABJRU5ErkJggg==;" vertex="1" parent="1">
          <mxGeometry y="290" width="62" height="62" as="geometry" />
        </mxCell>
        <mxCell id="T2kzDkr0WhVx5to_5DXp-4" value="Client 1" style="text;strokeColor=none;align=center;fillColor=none;html=1;verticalAlign=middle;whiteSpace=wrap;rounded=0;" vertex="1" parent="1">
          <mxGeometry x="-1.4210854715202004e-14" y="360" width="60" height="30" as="geometry" />
        </mxCell>
        <mxCell id="T2kzDkr0WhVx5to_5DXp-5" value="&lt;font style=&quot;font-size: 27px;&quot;&gt;...&lt;/font&gt;" style="text;html=1;strokeColor=none;fillColor=none;align=center;verticalAlign=middle;whiteSpace=wrap;rounded=0;fontStyle=1" vertex="1" parent="1">
          <mxGeometry x="320" y="300" width="120" height="60" as="geometry" />
        </mxCell>
        <mxCell id="T2kzDkr0WhVx5to_5DXp-6" value="" style="shape=image;verticalLabelPosition=bottom;labelBackgroundColor=default;verticalAlign=top;aspect=fixed;imageAspect=0;image=data:image/png,iVBORw0KGgoAAAANSUhEUgAAAgAAAAIACAMAAADDpiTIAAAAA3NCSVQICAjb4U/gAAAACXBIWXMAACBsAAAgbAGr64JSAAAAGXRFWHRTb2Z0d2FyZQB3d3cuaW5rc2NhcGUub3Jnm+48GgAAAvRQTFRF////AAAAAAAAAAAAAAAAAAAAAAAAAAAAAAAAAAAAAAAAAAAAAAAAAAAAAAAAAAAAAAAAAAAAAAAAAAAAAAAAAAAAAAAAAAAAAAAAAAAAAAAAAAAAAAAAAAAAAAAAAAAAAAAAAAAAAAAAAAAAAAAAAAAAAAAAAAAAAAAAAAAAAAAAAAAAAAAAAAAAAAAAAAAAAAAAAAAAAAAAAAAAAAAAAAAAAAAAAAAAAAAAAAAAAAAAAAAAAAAAAAAAAAAAAAAAAAAAAAAAAAAAAAAAAAAAAAAAAAAAAAAAAAAAAAAAAAAAAAAAAAAAAAAAAAAAAAAAAAAAAAAAAAAAAAAAAAAAAAAAAAAAAAAAAAAAAAAAAAAAAAAAAAAAAAAAAAAAAAAAAAAAAAAAAAAAAAAAAAAAAAAAAAAAAAAAAAAAAAAAAAAAAAAAAAAAAAAAAAAAAAAAAAAAAAAAAAAAAAAAAAAAAAAAAAAAAAAAAAAAAAAAAAAAAAAAAAAAAAAAAAAAAAAAAAAAAAAAAAAAAAAAAAAAAAAAAAAAAAAAAAAAAAAAAAAAAAAAAAAAAAAAAAAAAAAAAAAAAAAAAAAAAAAAAAAAAAAAAAAAAAAAAAAAAAAAAAAAAAAAAAAAAAAAAAAAAAAAAAAAAAAAAAAAAAAAAAAAAAAAAAAAAAAAAAAAAAAAAAAAAAAAAAAAAAAAAAAAAAAAAAAAAAAAAAAAAAAAAAAAAAAAAAAAAAAAAAAAAAAAAAAAAAAAAAAAAAAAAAAAAAAAAAAAAAAAAAAAAAAAAAAAAAAAAAAAAAAAAAAAAAAAAAAAAAAAAAAAAAAAAAAAAAAAAAAAAAAAAAAAAAAAAAAAAAAAAAAAAAAAAAAAAAAAAAAAAAAAAAAAAAAAAAAAAAAAAAAAAAAAAAAAAAAAAAAAAAAAAAAAAAAAAAAAAAAAAAAAAAAAAAAAAAAAAAAAAAAAAAAAAAAAAAAAAAAAAAAAAAAAAAAAAAAAAAAAAAAAAAAAAAAAxRfo/QAAAPt0Uk5TAAECAwQFBgcICQoLDA0ODxAREhMUFRYXGBkaGxwdHh8gISIjJCUmJygpKissLS4vMDEyMzQ1Njc5Ojs8PT4/QEFCQ0RFRkdISUpLTE1OT1BRUlNUVVZXWFlaW1xdXl9gYWJjZGVmZ2hpamtsbW5vcHFyc3R1dnh5e3x9fn+AgYKDhIWGh4iJiouMjY6PkJGSk5SVlpeYmZqbnZ6foKGio6SlpqeoqaqrrK2ur7CxsrO0tba3uLm6u7y9vr/AwcLDxMXGx8jJysvMzc7P0NHS09TV1tfY2drb3N3e3+Dh4uPk5ebn6Onq6+zt7u/w8fLz9PX29/j5+vv8/f5K0XlrAAAURElEQVQYGe3BeWCU5Z0H8O8kEDKJApHDBw+q1lIIIYoHFhUH2oIi1bpi0Roua60t4tW6bqGuUiseyJG0dSWo0NZiqQy1bMUDBUICrCx4i7gcWlHRJEQ5c8z3nxXNIBRm3snzHvO+z/v7fICQinQ7fcT1Ux5ZUrPura0ffdrUWP/eW2uX/fcTjzww4aLe+RAmO2bwTXNe2s3UEu+vmHvnVadAGCfnzNv+/k9maPtTv/xORwhj9J7w1zq2UctrleO6QQTfgGnvUlNL1W3fhAiy0+/ZRHveuu/cHIhA6nL7Bjph+3+dBRE4/efsoWPWTegEESDtRlXRWbsfOw8iIHLGbqEL3ri1CCIALn2NLvl0ajcIn7ugmi7a9WAPCB87YRFdtve3PSF8KvKzT+m+xtmnQPhR7yp6o6m8CMJv2k3eS8988rNcCF/pupSeemUwhI+cvpleW3AShF9cuYve2zOlAMIPcu5ldmyOQWRf0dPMlsT0fIgs67uRWfTm2RBZ9f3PmFVNU9pDZM8Pmplt/1sCkS3fb2L27b0tApEVF++jL8zPh8iCoXvpE6uOhfDc4N30jS0lEB47byd9pOFCCE+d/Sl9pXkChIe6vUe/uQ3CMznP0H/GQ3jlTvpQ8yUQ3hjWQj/acz6EF078mP60oxTCfe1r6FcfnALhurvpX+vyIFzWp5E+Ng3CZS/QzxLfhXBVGf1tW1cIF3X+kD63CMJFFfS96yGc1+n8G37/5PI3P6b/7ToZwlGn/mLhJgbIXyCcc9avX2PQnA/hDDX1PQbQ2giEA0763R4G0zgI24rnNjGothVC2NP9iQQDbAqELSM+YqDt7gahr+AhBt0dENrO3sDA254PoScyqYkG+AmEnt/RCG9FIHRU0BCXQGgopymWQ7TdLJrjNIi2mkmDPADRRtNokvdzINrkMpplCERbdP2IZqmEaIsnaJgd+RCZG0XjjITI2LGf0Dh/hchYnOapz4HI0GiaqD9EZrrX00S3QGRmCo0Uh8hI9GMaqS4HIhPX0VCnQ2Qg8gYNdTNEBi6iqRZCZOAZmqo2AmGpH811GoSlSprrJggr3ffSXE9CWJlMg30SgbCwliYrhUjv2ARN9iOI9MbRaPdApDefRnsCIq3cehptLURa59NsDRBp/YaG6wqRznoa7hyINI6j6X4IkcY4mu5XEGk8SNM9BpHGP2i6Kog0ttB0H0CkVpCg8QohUupP85VCpPRDmm8YREpTaL4rIFJaQPNdC5HSKzTfrRApbab5/hMipQ9ovukQKdXTfJUQKe2h+RZApJSg+Z6BSKUDQ2A1RCqdGAJvQqTSlSGwDSKV3Baarw4ipQ9pvk8gUlpH822HSOkfNN8HECnNofneh0jpbprvXYiUfkbzbYFI6Rya7/8gUmq/m8bbCJHaCzTeWxCp/ZrGWwuR2oU03lKI1Dq10HRxiDSeoekeg0hjNE1XDpFG4U4a7m6IdObScLMg0vkODfckRDo5r9NsqyHS+gHN9k+ItCKv0mjNuRBpjaTZjodIK/I/NNoAiPROa6LJ/g3Cwm9osokQFvLfpsHuhbCykAb7A4SVJTTYCxBWqmiwVyGsrKPB3oGwsoEGex/Cyj9psDoIK/U02B4IK/tosghEeu1otAKI9DrRaF0g0utBo50AkV4xjVYMkVbpOzTaO6UQaYzZTcPtHgORSoeHGAIPdYA4oq5rGAprukIcQftlDIll7SEON5uhMRviMDcxRG6C+BdDmxkizUMhDtGrnqFS3wviIDnrGTLrcyC+cg1D5xqIAwq3MXS2FUIk3cEQugOiVUEDQ6ihAOJL4xlK4yG+VM1Qqob4QglDqgRiv3sYUvdA7LeGIbUG4nOdmxlSzZ0hgEsZWpdCADMYWjMggGcZWs9CAJsYWpsg0K6ZodXcDuLrDLFTIYYwxIZAfJsh9m2IQQyxQRADGWIDIc5miJ0N0Z8h1h+ihCFWAtGbIdYb4usMsa9D9GSI9YQ4jiF2HEReI0OrMQ8CLzO0XoYAHmNoPQYB3MLQugUCGMzQGgwBFDG0iiA+t5UhtRViv0UMqUUQ+93JkLoTYr/LGFKXQex3MkPqZIgv1DGU6iC+NJehNBfiSyMYSiMgvpS3gyG0Iw+i1aMMoUchkoYzhIZDJLWvZ+jUt4c44BGGziMQX7mIoXMRxFfa1zFk6tpDHKSSIVMJcbAzGTJnQhxiEUNlEcSh+icYIon+EP9iIUNkIcS/Kk0wNBKlEIdZwNBYAHG4kgRDIlECcQTzGRLzIY6k126Gwu5eEEd0HUPhOogUFjAEFkCk0nkrjbe1M0RK5zbTcM3nQqQxmYabDJFOzos02os5EGkVraHB1hRBWOhUTWNVd4KwdNRyGmr5URAZKHyeRnq+ECIj0adpoKejEBnKndRIwzROyoXI3Jlv0ihvngnRJtHyBI2RKI9CtNV319EQ674LoePiGhqg5mIIXUOeZ8A9PwTCjp43r2hhQLWsuLknhG3HXvvw2n0MmH1rH772WAin5I1ioIzKg3DWcwyQ5yCcNoABMgDCcQsZGHEI55W0MCBaSiBcMI8BMQ/CDac0MhAaT4Fwxe8ZCL+HcMdxuxkAu4+DcMn9DID7IdzSpYG+19AFwjWT6HuTINyTv5k+tzkfwkWX0+cuh3DVUvraUgh39WumjzX3g3BZBX2sAsJtx9TSt2qPgXDdBPrWBAj35b5Cn3olF8IDg+lTgyE8sYC+tADCGyftoQ/tOQnCI3fRh+6C8ErBe/Sd9wogPHMxfediCA9V0mcqIbzUcSt9ZWtHCE8NSdBHEkMgPFZOHymH8FrBRvrGxgIIzw1soU+0DITIgnvpE/dCZEOH1+gLr3WAyIozmugDTWdAZMkd9IE7ILKl3UvMupfaQWRN373Msr19IbLo58yyn0Nk1Xxm1XyI7CpYzyxaXwCRZSd9zKz5+CSIrIs1MUuaYhA+cAOz5AYIX5jNrJgN4Q+5C5gFC3IhfKL9YnpucXsI38h/nh57Ph/CRwqr6KmqQghf6fgSPfRSRwif6biYnlncEcJ3cu6nR+7PgfCjsXvpgb1jIXxq4Lt03bsDIXyr4xy6bE5HCD+7eBtdtO1iCJ8r+gNd84ciCP87r4auqDkPIhiu2EjHbbwCIjDaT9xOR22f2B4iSKI/fp2Oef3HUYjAGfZ0gg5IPD0MIpj6VGynTdsr+kAEV+7QOfXUVj9naC5EwOVd+vhOatj5+KV5EEYoGPnbVxJsg8Qrvx1ZAGGSou/dt6qRGWhcdd/3iiBMVDDk5oolm5qZQvOmJRU3DymAMFveN0fcMqNy/uJlaze839Dw/oa1yxbPr5xxy4hv5kEIEQhHD/zprBvPagcfaHfWjbN+OvBoCM/0fvCdBPfb9WIZsqzsxV3cL/HOg70hPNDh6mU8yJ87I4s6/5kHWXZ1Bwh39X6wlofaOghZM2grD1X7YG8I1+RfvZyHazkXWXJuCw+3/Op8CDf0mV7LI3o5F1mR+zKPqHZ6HwiH5ZctZ0o3IytuZkrLy/IhnNNnei3T+LQHsqDHp0yjdnofCEfkly2nhWnIgmm0sLwsH8KuPtNraWlbLjyXu42Waqf3gbAhv2wFMzIUnhvKjKwoy4fQUzy9lhmaB8/NY4ZqpxdDtFl+2QpmbmchPFa4k5lbUZYP0RbFM+rYJmXwWBnbpG5GMUSG8kevYFstgceWsK1WjM6HsFY8o45t19wDnurRzLarm1EMkVb+6BXUcys8dSv1rBidD5FK8Yw66loHT62jrroZxRBHkD+6inb0hYf60o6q0fkQh+o7s472TIWHptKeupl9IQ6Ijqmibe9G4JnIu7StakwUYr++M+vohMHwzGA6oW5mX4RedEwVHTIHnplDh1SNiSLM+s6sp2MaovBItIGOqZ/ZFyEVHbOSjhoFj4yio1aOiSJ8SmbV02FPwSNP0WH1s0oQKtGxK+m8pm7wRLcmOm/l2CjComRWPV0xEZ6YSFfUzypBCETHrqRbVuPICosvvLLNLiwuxJGtpltWjo3CbCWz6umiXjhcwZhl1LRsTAEO14suqp9VAmNFx1bTXXfhMMM/pA0fDsdh7qK7qsdGYaKS8nq6bVMEh8qpoE0VOThUZBPdVl9eAsNEx1XTC+fhUDNp20wc6jx6oXpcFOboV15PbzyEQ0ygAybgEA/RG/Xl/WCEgnHV9ExdHg6idtEBuxQOkldHz1SPK0DQ9SvfQS9dhoPMpCNm4iCX0Us7yvshwArG1dBjT+IrnfbSEXs74StP0mM14woQTP0qdtBz+4pwwDA6ZBgOKNpHz+2o6IfAKRhfw6z4CQ64kw65Ewf8hFlRM74AQVJasYNZUoUD/kiH/BEHVDFLdlSUIiAKxtcwi05G0qN0yKNIOplZVDO+AP5XWrGDWTUZSQ/TIQ8jaTKzakdFKfxt6HJm2wYk3UaH3IakDcy25UPhX8NX0QcGoNXpdMjpaDWAPrBqOHwpcslL9IVytIp8REd8FEGrcvrCS5dG4DeRy9fTJ7a3Q6sH6IgH0KrddvrE+ssj8JOcUa/SP0ag1TcSdEDiG2g1gv7x6qgc+MaoN+kn85H0HB3wHJLm00/eHAV/6LaQ/rKnI1pdTgdcjlYd99BfFnaDD1zyEf3mGrRqt422bWuHVtfQbz66BNl2dCX9ZymS7qJtdyFpKf2n8mhk1aDN9KHEiWh1YjNtaj4RrU5M0Ic2D0L2dLi/hb50O5L+Rpv+hqTb6Ust93dAlpz2Kn3qNSRdRJsuQtJr9KlXT0NW/Ps++lZ/tMrZTFs256BVf/rWvn+H9yIV9LFpSLqdttyOpGn0sYoIPJY7l372QS5add9HG/Z1R6vcD+hnc3PhqQ4L6W/DkPQ4bXgcScPobws7wEOFz9Ln5iHpAtpwAZLm0eeeLYRnOlfT73YWIukNansDSYU76XfVneGR7uvpf2VIupHabkRSGf1vfXd4oucGBsASJHXeRU27OiNpCQNgQ094oNdWBkFzDyRVUlMlkno0Mwi29oLrumxhMNyKpLOp6Wwk3cpg2NIFLst9lgGxDge8TS1v44B1DIhnc+GuqQyMvmjVpZFaGrugVV8GxlS4aiSDYypaXUdN16HVVAbHSLio+DMGx3s5+NIL1PQCvpTzHoPjs2K4puMGBslgfOG4FmpqOQ5fGMwg2dARLoksYqDMwRduobZb8IU5DJRFEbhjMoOlIYr91lDbGuwXbWCwTIYrhrcwYEbhc6fShlPxuVEMmJbhcEGPegbN3/G5SbRhEj73dwZNfQ8471EGTlM3AK/ThtcBdGti4DwKx52VYPBMBEppSykwkcGTOAtOW8kAWg3cQ1vuAVYzgFbCYVcykHphM23ZjF4MpCvhqOhWBtKUb9Gmb01hIG2Nwkm/YjBtKqdN5ZsYTL+Cg47fxYDaS5v2MqB2HQ/nzKMInHlwzDkJisBJnAOn1FAEUA0cMogikAbBGfMoAmkeHFG0hyKQ9hTBCRMpAmoinPAyRUC9DAcMoAisAbBvNkVgzYZtR31GEVifHQW7rqUIsGth12qKAFsNm0opAq0U9kyhCLQpsGcpRaAthS25OykCbWcu7DiDIuDOgB03UATcDbDjTxQB9yfYsYUi4LbAhuMpAu946LuCIvCugL7pFIE3HfpWUwTeamiLNlIEXmMUukopDFAKXUMoDDAEuq6gMMAV0HU9hQGuh65JFAb4JXRNpzDAdOiaS2GAudC1mMIAi6FrFYUBVkHXOxRt8MmHjtpHh2yErnqKzDQ8+csLu8NZeWf8+KFX6YB6aMpNUGRkyQlwR2TibtqWyIWerhSZ2Hk93NOrhrZ1hR5FkYFPToWbcitpl4IeRZGBq+Cugo20SUGPorC2AG47t4X2KOhRFJa2d4Pr7qM9CnoUhaV74b5jaI+CHkVhaSQ8sIm2KOhRFJa+Bg8soC0KehSFle3wwn/QFgU9isLKM/DCRbRFQY+isBKHF2K0RUGPorAShxditEVBj6KwEocXYrRFQY+isBKHF2K0RUGPorAShxditEVBj6KwEocXYrRFQY+isBKHF2K0RUGPorAShxditEVBj6KwEocXYrRFQY+isBKHF2K0RUGPorAShxditEVBj6KwEocXYrRFQY+isBKHF2K0RUGPorAShxditEVBj6KwEocXYrRFQY+isBKHF2K0RUGPorAShxditEVBj6KwEocXYrRFQY+isBKHF2K0RUGPorAShxditEVBj6KwEocXYrRFQY+isBKHF2K0RUGPorAShxditEVBj6KwEocXYrRFQY+isBKHF2K0RUGPorAShxditEVBj6KwEocXYrRFQY+isBKHF2K0RUGPorAShxditEVBj6KwEocXYrRFQY+isBKHF2K0RUGPorAShxditEVBj6KwEocXYrRFQY+isBKHF2K0RUGPorAShxditEVBj6KwEocXYrRFQY+isFIFL1xOWxT0KAoru3Lhgbtpi4IeRWGpBB54mrYo6FEUlsbDAx/TFgU9isLSbLjvVNqjoEdRWGrsD9ctpj0KehSFtZfz4LIf0SYFPYoiA7+Gu772KW1S0KMoMtB0Fdx0wirapaBHUWTkL93gmnE7aJuCHkWRme0jc+CKE5+iAxT0KIpMffbiA6NKejsqdtv8TXSEgh5FYQQFPYrCCAp6FIURFPQoCiMo6FEURlDQoyiMoKBHURhBQY+iMIKCHkVhBAU9isIICnoUhREU9CgKIyjoURRGUNCjKIygoEdRGEFBj6IwgoIeRWEEBT2KwggKehSFERT0KAojKOhRFEZQ0KMojKCgR1EYQUGPojCCgh5FYQQFPUclKAyQOAqa3qYwwNvQ9TiFAR6Hrl9QGOAX0HUBhQEugK7IcxSB91wE2no2UARcQ0/YMJ4i4MbDlkcoAu0R2HRVLUVg1V4F23ospgioxT3ghNLx5dW7KQJld3X5+FJY+39YSlJ45ekoBgAAAABJRU5ErkJggg==;" vertex="1" parent="1">
          <mxGeometry x="425" y="295" width="62" height="62" as="geometry" />
        </mxCell>
        <mxCell id="T2kzDkr0WhVx5to_5DXp-7" value="Client K" style="text;strokeColor=none;align=center;fillColor=none;html=1;verticalAlign=middle;whiteSpace=wrap;rounded=0;" vertex="1" parent="1">
          <mxGeometry x="425" y="358" width="60" height="30" as="geometry" />
        </mxCell>
        <mxCell id="T2kzDkr0WhVx5to_5DXp-8" value="" style="rounded=0;whiteSpace=wrap;html=1;fillColor=none;dashed=1;" vertex="1" parent="1">
          <mxGeometry x="420" y="260" width="315" height="215" as="geometry" />
        </mxCell>
      </root>
    </mxGraphModel>
  </diagram>
</mxfile>
